<?xml  version="1.0" encoding="UTF-8"?>
<!DOCTYPE svg PUBLIC "-//W3C//DTD SVG 1.0//EN" "http://www.w3.org/TR/2001/REC-SVG-20010904/DTD/svg10.dtd" >
<svg xmlns="http://www.w3.org/2000/svg" >
<metadata>
<version>1.0</version>
<id><![CDATA[Minion W01 SmBd]]></id>
<vendor>Monotype Imaging Inc.</vendor>
<credits>
<name>Fonts.com WebFonts</name>
<URL>http://webfonts.fonts.com</URL>
<role>Home of the Web fonts</role>
</credits>
<license>
<URL>http://webfonts.fonts.com/Legal</URL>
</license>
<copyright><![CDATA[© 1990, 1991, 1992, 1994, 1997, 1998, 2000, 2002, 2004 Adobe Systems Incorporated. All rights reserved.]]></copyright>
<trademark><![CDATA[Minion is either a registered trademark or a trademark of Adobe Systems Incorporated in the United States and/or other countries.]]></trademark>
<licensee>
<name></name>
</licensee>
</metadata>
<defs >
<font horiz-adv-x="511" id="cae2aa90-12f3-4dab-8a67-205fbdf0f046">
<font-face font-family="" panose-1="2 4 6 3 6 3 6 2 2 3" ascent="750" descent="-250" units-per-em="1000" alphabetic="0">
</font-face>
<missing-glyph horiz-adv-x="221" />

<glyph unicode="&#xA;" horiz-adv-x="0" />
<glyph unicode="&#xD;" horiz-adv-x="221" />
<glyph unicode=" " horiz-adv-x="221" />
<glyph unicode="!" horiz-adv-x="282" d="M139 665Q180 665 195 655T211 626Q211 614 209 597T202 551Q189 468 180 385T160 211Q159 207 153 205T139 203T126 205T119 211Q109 302 99 385T76 551Q71 580 69 597T67 626Q67 644 82 654T139 665ZM140 -12Q111 -12 92 7T72 59Q72 90 91 110T140 131Q171 131 190 111T210 59Q210 27 191 8T140 -12Z"  />
<glyph unicode="&quot;" horiz-adv-x="358" d="M146 702Q145 691 141 662T133 597T123 523T113 457L79 441Q73 478 67 517T55 590T45 648T38 677L137 708L146 702ZM316 702Q315 691 312 662T303 596T293 522T283 457L250 441Q244 478 238 517T225 590T215 648T209 677L308 708L316 702Z"  />
<glyph unicode="#" horiz-adv-x="493" d="M450 390H357L327 263H412L400 190H310L270 19H225L264 190H164L125 19H79L118 190H22L33 263H136L165 390H74L83 463H182L216 612H262L228 463H328L362 612H408L374 463H461L450 390ZM211 390L182 263H282L312 390H211Z"  />
<glyph unicode="$" horiz-adv-x="493" d="M306 361Q334 351 360 336T407 301T439 254T452 193Q451 117 403 70T271 12V-73H232V9Q176 10 134 24T70 51Q67 60 64 75T58 109T50 148T43 189L75 195Q81 176 93 152T123 106T169 68T232 48V269L200 283Q137 309 99 347T60 444Q60 510 104 556T232 614V690H271V617Q295 617 319 613T362 604Q373 601 381 600T398 596Q403 570 408 540T420 465L389 460Q383 479 375 498T354 534T320 562T271 579V374L306 361ZM232 579Q189 573 169 546T148 487Q148 449 171 427T232 389V579ZM271 50Q310 56 334 81T358 150Q358 162 355 175T345 201T323 226T284 250L271 256V50Z"  />
<glyph unicode="%" horiz-adv-x="761" d="M192 -36L157 -10L563 651L599 626L192 -36ZM195 635Q235 635 263 618T310 575T338 518T347 458Q347 429 339 398T312 340T264 297T195 280Q156 280 128 297T81 340T53 397T44 458Q44 487 53 518T80 575T127 618T195 635ZM197 601Q177 601 165 586T146 548T136 502T133 459Q133 440 135 415T145 368T165 330T197 314Q216 314 228 330T247 368T256 415T258 458Q258 477 256 501T248 548T229 585T197 601ZM568 343Q608 343 636 326T683 283T711 226T720 165Q720 136 712 105T685 48T637 5T568 -12Q528 -12 500 5T453 48T425 105T416 165Q416 194 425 225T452 283T499 326T568 343ZM569 309Q549 309 537 294T518 258T508 211T505 167Q505 148 507 123T517 76T537 38T569 22Q589 22 601 38T620 76T629 123T631 166Q631 185 629 210T620 257T601 294T569 309Z"  />
<glyph unicode="&amp;" horiz-adv-x="714" d="M726 394Q702 392 686 388T657 375T633 355T609 325Q588 297 568 267T523 202Q544 181 567 156T614 103T657 49T693 -4L687 -15Q624 -14 583 -1T533 22Q523 33 500 58T451 110Q401 44 352 15T252 -14Q202 -14 164 2T100 45T61 105T47 171Q47 203 57 227T86 273T131 313T191 356Q159 387 141 420T122 497Q122 531 136 560T174 612T230 648T297 661Q332 661 362 651T413 621T447 576T459 519Q459 491 447 471T417 435Q402 421 382 407T336 375Q359 355 402 317T496 229Q511 252 524 275T549 326Q557 343 558 354T554 373T533 386T492 394L493 426H726V394ZM288 624Q256 624 236 597T215 532Q215 494 237 465T308 397Q334 417 350 447T367 522Q367 542 362 560T346 593T322 615T288 624ZM292 69Q332 69 368 90T426 139Q401 165 378 188T330 233T278 280T217 332Q186 305 172 274T157 210Q157 174 169 148T200 104T243 78T292 69Z"  />
<glyph unicode="&apos;" horiz-adv-x="188" d="M146 702Q145 691 141 662T133 597T123 523T113 457L79 441Q73 478 67 517T54 590T44 648T37 677L137 708L146 702Z"  />
<glyph unicode="(" horiz-adv-x="349" d="M285 -171Q175 -93 125 20T74 272Q74 409 124 521T285 712L309 687Q274 654 247 609T200 511T171 396T161 271Q161 206 171 145T201 29T248 -70T309 -145L285 -171Z"  />
<glyph unicode=")" horiz-adv-x="349" d="M64 712Q174 634 224 521T275 271Q275 134 225 21T64 -171L40 -146Q75 -114 102 -69T149 30T178 145T188 271Q188 335 178 397T148 513T101 613T40 688L64 712Z"  />
<glyph unicode="*" horiz-adv-x="404" d="M237 460L274 322L248 312L177 440L54 365L37 390L139 485L34 589L51 612L173 533L233 665L260 658L235 519L368 514L369 486L237 460Z"  />
<glyph unicode="+" horiz-adv-x="578" d="M324 224V0H256V224H49V284H256V486H324V284H530V224H324Z"  />
<glyph unicode="&#x2c;" horiz-adv-x="245" d="M98 150Q115 150 134 142T169 118T195 80T206 30Q206 -3 192 -29T156 -74T106 -107T50 -127L38 -95Q81 -77 102 -55T124 -2Q124 24 106 43T55 69Q51 71 46 78T41 101Q41 123 58 136T98 150Z"  />
<glyph unicode="-" horiz-adv-x="347" d="M286 195H47L61 261H301L286 195Z"  />
<glyph unicode="." horiz-adv-x="245" d="M122 -12Q93 -12 74 7T55 58Q55 87 74 106T122 126Q151 126 170 107T190 58Q190 26 171 7T122 -12Z"  />
<glyph unicode="/" horiz-adv-x="329" d="M85 -45H20L237 665H302L85 -45Z"  />
<glyph unicode="0" horiz-adv-x="493" d="M247 635Q307 635 348 606T414 529T450 425T461 312Q461 257 450 200T414 95T348 18T246 -12Q185 -12 144 17T78 93T42 197T31 311Q31 366 42 424T78 528T145 605T247 635ZM246 597Q217 597 199 572T169 507T154 416T150 314Q150 263 155 212T171 119T201 53T248 27Q276 27 294 52T322 117T337 209T342 313Q342 366 338 417T322 508T292 572T246 597Z"  />
<glyph unicode="1" horiz-adv-x="493" d="M104 0V31Q135 33 153 37T181 51T193 77T196 121V492Q196 511 195 523T188 541T174 549T149 553L99 556V583Q149 591 200 604T309 635V121Q309 95 311 79T323 52T350 38T400 31V0H104Z"  />
<glyph unicode="2" horiz-adv-x="493" d="M461 152Q450 112 441 72T424 0H32V25Q73 65 114 106T193 192Q244 252 276 310T308 429Q308 485 281 518T199 552Q175 552 156 544T120 524T89 495T64 462L38 484L99 574Q125 601 161 618T244 635Q280 635 312 623T368 589T406 534T421 460Q421 430 413 402T389 346T346 288T284 222L157 95H327Q349 95 363 96T387 104T407 124T430 162L461 152Z"  />
<glyph unicode="3" horiz-adv-x="493" d="M59 510L106 575Q127 598 161 616T243 635Q318 635 359 597T401 501Q401 481 393 464T370 432Q357 421 340 409T298 381V378Q369 365 406 322T443 223Q443 182 428 149T387 90T331 45T270 13T213 -6T170 -12Q133 -12 105 -1T62 21Q41 39 41 60Q42 72 51 83T69 101Q86 114 101 102Q110 94 122 84T151 65T186 50T228 43Q272 43 300 77T329 184Q329 219 318 244T288 284T249 307T206 314Q191 314 176 311T149 305L142 337Q175 347 202 360T249 389T280 426T291 472Q291 520 265 542T202 564Q163 564 135 542T83 487L59 510Z"  />
<glyph unicode="4" horiz-adv-x="493" d="M383 175V109Q383 86 385 72T395 50T420 38T465 31V0H182V31Q214 34 232 38T260 50T271 73T273 112V175H17V212Q95 324 172 430T323 630H383V229H475V175H383ZM273 503H271Q230 447 184 378T87 229H273V503Z"  />
<glyph unicode="5" horiz-adv-x="493" d="M125 363Q160 376 194 385T248 394Q296 394 333 380T395 342T433 288T446 226Q446 179 423 137T349 57Q307 25 259 7T167 -12Q135 -12 107 -2T64 21Q50 32 46 40T42 59Q42 70 50 82T70 104Q85 115 103 100Q112 92 124 82T153 64T188 49T230 43Q256 43 275 53T308 82T327 125T334 178Q334 246 294 287T181 328Q147 328 119 321T74 308L117 623H423L429 614L399 528H152L125 363Z"  />
<glyph unicode="6" horiz-adv-x="493" d="M220 380Q238 388 252 393T280 399Q322 399 357 386T416 347T454 288T468 213Q468 166 452 126T406 54T337 6T249 -12Q203 -12 163 5T94 55T48 135T31 241Q31 322 56 384T121 491T206 565T295 609Q311 614 329 619T366 628T403 635T436 641L443 605Q420 600 391 592T335 570Q315 560 290 543T240 501T196 439T164 353L220 380ZM233 333Q210 333 192 329T158 316Q154 302 153 280T151 240Q151 192 160 153T185 85T222 42T268 27Q293 27 309 40T335 75T349 121T353 172Q353 206 345 235T322 286T284 320T233 333Z"  />
<glyph unicode="7" horiz-adv-x="493" d="M474 611Q402 459 330 307T188 -1L96 -12L89 1Q174 132 250 267T390 528H176Q151 528 136 526T110 517T93 495T75 458H42Q51 511 56 551T65 623H465L474 611Z"  />
<glyph unicode="8" horiz-adv-x="493" d="M256 635Q295 635 328 624T384 592T420 543T433 483Q433 462 426 443T402 407Q392 397 375 383T326 348Q352 334 376 318T418 280T448 233T459 174Q459 128 439 94T387 36T317 0T244 -12Q198 -12 160 0T95 33T52 86T37 157Q37 192 51 212T80 247Q93 260 120 277T171 309Q125 335 94 372T62 465Q62 499 76 530T115 584T177 621T256 635ZM244 598Q224 598 209 590T184 569T168 538T162 504Q162 478 172 458T199 422T240 393T292 366Q309 380 323 406T337 477Q337 509 329 532T307 569T277 591T244 598ZM254 25Q299 25 326 56T352 139Q352 166 342 186T312 224T266 257T205 291Q178 272 160 240T142 167Q142 131 152 105T178 61T214 34T254 25Z"  />
<glyph unicode="9" horiz-adv-x="493" d="M249 635Q301 635 340 615T406 560T446 480T460 383Q460 315 442 257T390 153T313 72T216 17Q199 11 178 5T134 -5T92 -12T57 -15L51 19Q106 28 153 51T236 109T296 187T331 280L275 251Q242 234 217 234Q174 234 139 248T80 288T42 347T29 421Q29 455 43 493T85 562T154 614T249 635ZM232 597Q208 597 192 585T165 552T150 508T145 459Q145 427 153 398T178 347T217 312T269 299Q290 299 307 304T336 317Q339 337 340 354T341 388Q341 424 336 461T318 528T284 577T232 597Z"  />
<glyph unicode=":" horiz-adv-x="245" d="M123 416Q152 416 171 397T190 347Q190 317 171 298T123 278Q94 278 75 297T56 347Q56 378 75 397T123 416ZM123 -12Q94 -12 75 7T56 57Q56 87 75 106T123 126Q152 126 171 107T190 57Q190 26 171 7T123 -12Z"  />
<glyph unicode=";" horiz-adv-x="245" d="M123 416Q152 416 170 397T189 347Q189 317 171 298T123 278Q94 278 75 297T56 347Q56 378 75 397T123 416ZM99 150Q116 150 135 142T170 118T196 80T207 30Q207 -3 193 -29T157 -74T107 -107T51 -128L41 -95Q83 -77 103 -55T124 -2Q124 24 106 43T55 69Q52 70 47 78T42 101Q42 123 59 136T99 150Z"  />
<glyph unicode="&lt;" horiz-adv-x="550" d="M56 223V283L495 506V441L123 254V252L495 65V0L56 223Z"  />
<glyph unicode="=" horiz-adv-x="578" d="M49 316V375H530V316H49ZM49 133V193H530V133H49Z"  />
<glyph unicode="&gt;" horiz-adv-x="550" d="M56 0V65L427 252V254L56 441V506L495 283V223L56 0Z"  />
<glyph unicode="?" horiz-adv-x="392" d="M204 199Q186 205 165 217T126 247T96 286T83 331Q83 359 102 387T175 450Q194 462 213 474T247 499T271 523T281 546Q281 589 231 589Q206 589 185 579T148 557T120 534T102 524Q95 524 86 529T69 542T56 561T50 584Q50 598 55 606T72 624Q84 635 99 642T128 655T156 662T178 665Q210 665 241 651T296 614T336 559T351 494Q351 465 341 443T296 395Q283 386 265 374T231 348T203 320T191 290Q191 273 199 258T225 222L204 199ZM187 -12Q158 -12 139 7T119 59Q119 89 138 109T187 130Q217 130 236 110T256 59Q256 27 237 8T187 -12Z"  />
<glyph unicode="@" horiz-adv-x="761" d="M562 -45Q511 -75 462 -87T364 -99Q302 -99 246 -80T147 -22T79 74T54 209Q54 296 86 364T172 480T293 553T434 578Q503 578 556 557T646 501T702 420T721 323Q721 272 703 227T652 147T575 93T477 73Q457 73 446 78T429 92T424 114T428 145L438 195L436 196Q424 178 404 157T360 117T313 86T270 73Q250 73 235 94T220 160Q221 203 238 252T300 346Q330 376 375 398T469 420Q480 421 495 418T521 412Q537 408 557 408Q549 374 536 315T509 185Q502 148 505 134T524 120Q548 120 573 132T620 170T654 234T668 323Q668 374 650 414T600 481T525 522T433 536Q365 536 309 512T213 445T150 343T127 215Q127 167 141 120T187 35T270 -26T394 -50Q440 -50 483 -40T549 -15L562 -45ZM422 377Q403 377 389 370T362 349Q342 326 327 282T311 191Q310 164 315 154T331 144Q342 144 375 170T445 256Q454 282 461 312T473 365Q462 370 449 373T422 377Z"  />
<glyph unicode="A" horiz-adv-x="700" d="M411 0V32Q433 35 446 39T464 50T469 67T463 94Q455 119 443 152T417 222H218Q208 194 198 166T179 107Q173 87 172 74T176 53T197 40T240 32V0H19V32Q43 35 59 40T86 55T108 85T131 136L336 653L380 665Q428 534 475 402T572 139Q584 106 594 87T615 56T642 40T682 32V0H411ZM321 501H318Q296 443 276 386T234 271H400L321 501Z"  />
<glyph unicode="B" horiz-adv-x="619" d="M390 349Q431 344 465 333T524 302T563 256T577 192Q577 141 552 103T483 42Q445 20 392 10T277 0H35V33Q65 35 82 38T109 52T120 80T123 130V520Q123 551 121 569T110 597T86 611T42 617V650H321Q378 650 416 642T481 615Q508 598 523 568T539 502Q539 466 525 440T490 397T442 369T390 353V349ZM270 363Q346 363 380 393T415 486Q415 548 383 580T298 612Q281 612 268 609T249 600Q238 592 238 555V363H270ZM238 132Q238 77 255 58T315 39Q339 39 363 47T405 73T435 117T447 182Q447 254 402 289T268 325H238V132Z"  />
<glyph unicode="C" horiz-adv-x="672" d="M654 169Q649 151 642 129T628 85T612 44T598 11Q588 9 568 5T521 -4T467 -12T412 -15Q315 -15 245 14T130 91T64 197T42 316Q42 394 70 458T150 568T274 639T435 665Q465 665 493 662T545 654T587 645T615 638Q621 596 626 560T637 479L602 472Q591 515 573 544T530 591T476 616T413 624Q356 624 312 600T238 536T193 444T177 336Q177 267 195 210T245 113T323 50T421 28Q489 28 536 67T621 182L654 169Z"  />
<glyph unicode="D" horiz-adv-x="751" d="M335 650Q430 650 501 630T620 564Q658 529 682 476T707 350Q707 259 674 193T583 83Q527 40 452 20T282 0H32V32Q63 35 81 38T108 51T120 79T123 130V519Q123 551 121 569T110 598T85 611T41 617V650H335ZM240 137Q240 110 244 92T259 62T288 46T332 41Q389 41 434 62T511 122T559 214T576 332Q576 407 553 464T485 557Q421 612 320 612Q291 612 274 608T251 598Q245 592 243 580T240 542V137Z"  />
<glyph unicode="E" horiz-adv-x="576" d="M562 163Q560 148 556 125T546 78T535 33T527 0H27V32Q60 35 79 38T107 52T120 80T123 130V519Q123 552 121 570T110 598T85 611T41 617V650H502Q502 642 503 627T505 591T508 547T512 502L478 497Q464 556 441 583Q429 597 406 603T336 609H278Q252 609 246 604T240 575V358H317Q349 358 368 360T399 369T415 392T426 433H460V235H426Q421 262 416 277T399 299T369 309T317 311H240V133Q240 97 245 78T264 51Q278 43 302 42T358 40Q404 40 431 46T475 73Q489 89 502 113T529 169L562 163Z"  />
<glyph unicode="F" horiz-adv-x="545" d="M480 494Q472 523 464 543T444 578Q430 596 407 602T336 609H277Q252 609 246 604T240 575V349H330Q363 349 382 351T413 361T429 383T439 422H472V225H439Q435 250 430 265T414 289T383 300T330 303H240V136Q240 102 243 83T255 53T284 39T337 32V0H39V32Q67 35 84 38T110 52T121 82T124 136V516Q124 549 122 568T111 598T86 611T41 617V650H502Q502 641 503 624T505 586T509 543T513 499L480 494Z"  />
<glyph unicode="G" horiz-adv-x="723" d="M699 275Q679 272 668 268T650 257T642 236T640 198V116Q640 89 641 66T647 22Q601 11 541 -2T420 -15Q334 -15 265 9T147 77T71 182T44 318Q44 404 76 469T163 577T287 643T435 665Q466 665 495 662T549 654T595 645T629 637Q631 611 635 571T645 474L611 468Q602 511 584 541T540 589T484 616T417 625Q367 625 324 605T248 548T197 456T178 334Q178 278 193 223T239 124T317 52T430 24Q450 24 467 27T498 38Q510 46 517 58T524 97V189Q524 215 522 230T509 255T476 268T416 275V307H699V275Z"  />
<glyph unicode="H" horiz-adv-x="777" d="M740 617Q710 614 693 611T668 598T657 570T654 520V129Q654 97 656 79T668 52T694 39T740 32V0H448V32Q478 35 496 38T523 51T534 79T537 129V320H240V129Q240 97 242 79T253 52T279 39T325 32V0H39V32Q67 35 84 38T110 51T121 79T124 129V520Q124 552 122 570T110 598T84 611T36 617V650H322V617Q294 615 278 612T254 598T243 570T240 520V368H537V520Q537 552 535 570T524 597T499 610T454 617V650H740V617Z"  />
<glyph unicode="I" horiz-adv-x="364" d="M38 0V32Q67 35 84 38T110 51T121 79T124 130V519Q124 551 122 569T110 597T84 611T38 617V650H325V617Q296 615 279 611T254 598T243 570T240 519V130Q240 98 242 80T253 52T279 39T325 32V0H38Z"  />
<glyph unicode="J" horiz-adv-x="352" d="M325 617Q298 615 282 611T258 598T247 570T244 519V174Q244 129 241 90T227 16T198 -47T148 -103Q119 -128 91 -142T37 -164L23 -130Q64 -111 86 -81T117 -5Q124 35 126 82T128 188V519Q128 551 126 569T114 597T88 611T41 617V650H325V617Z"  />
<glyph unicode="K" horiz-adv-x="692" d="M504 0Q483 26 458 59T404 128T347 205T288 284Q271 306 260 312T237 316V132Q237 100 240 81T252 52T278 39T325 32V0H41V32Q68 35 84 38T110 52T121 81T124 132V517Q124 550 122 569T110 598T84 611T38 617V650H319V617Q292 615 276 611T251 597T240 569T237 517V346Q254 351 271 362T311 396Q359 443 396 485T461 563Q481 588 478 599T439 615L420 617V650H672V617Q647 615 628 611T590 600T553 579T512 546Q474 510 435 470T356 388Q381 352 409 315T466 240T522 169T574 106Q591 86 605 73T632 51T658 39T688 32V0H504Z"  />
<glyph unicode="L" horiz-adv-x="546" d="M540 165Q537 150 532 127T522 79T512 32T503 0H29V32Q61 35 80 38T108 52T121 80T124 131V520Q124 552 122 570T110 598T84 611T37 617V650H326V617Q297 615 280 612T254 598T243 570T240 520V127Q240 90 244 74T264 50Q278 44 299 42T346 40Q382 40 408 46T452 73Q466 88 479 112T506 173L540 165Z"  />
<glyph unicode="M" horiz-adv-x="889" d="M576 0V32Q605 35 621 39T646 54T656 87T658 144L655 537H651L422 7H396L185 526H182L169 256Q166 194 166 157T168 93Q169 76 174 65T189 48T217 39T259 33V0H21V33Q64 37 81 50T103 91Q105 103 107 119T112 157T118 209T124 278L139 479Q142 524 142 550T133 590T105 609T53 617V650H245L450 190L659 650H849V617Q818 614 801 610T775 596T764 567T763 513L773 144Q774 108 776 87T787 55T813 39T861 32V0H576Z"  />
<glyph unicode="N" horiz-adv-x="741" d="M722 618Q681 616 663 603T641 556Q638 533 636 495T633 389V-10H591L171 498H169V263Q169 196 171 159T176 99Q178 81 183 69T199 50T227 38T272 32V0H30V32Q72 35 91 48T115 96Q117 121 120 158T123 263V476Q123 501 123 517T120 545T114 564T103 581Q88 600 70 607T17 618V650H189L584 189H587V389Q587 457 585 495T580 555Q578 571 572 582T555 601T526 612T481 618V650H722V618Z"  />
<glyph unicode="O" horiz-adv-x="759" d="M388 665Q455 665 514 641T619 573T690 468T717 332Q717 251 690 187T617 78T508 9T376 -15Q304 -15 243 10T137 81T68 188T43 322Q43 387 66 449T133 559T241 636T388 665ZM369 625Q330 625 296 606T235 551T193 463T178 344Q178 278 193 220T237 118T306 50T396 25Q434 25 467 42T526 95T567 182T582 305Q582 381 566 440T522 541T454 603T369 625Z"  />
<glyph unicode="P" horiz-adv-x="586" d="M309 650Q366 650 409 641T482 610Q515 587 533 551T552 465Q552 415 535 379T490 317T426 277T351 258Q340 256 329 256T309 257L238 274V129Q238 97 241 79T253 52T282 39T334 32V0H38V32Q67 35 84 38T110 52T121 80T124 130V519Q124 551 122 569T111 598T87 611T44 617V650H309ZM238 311Q248 307 264 304T299 301Q317 301 339 307T380 332T413 381T426 462Q426 504 415 532T385 579T342 605T292 613Q275 613 264 610T248 603Q238 594 238 566V311Z"  />
<glyph unicode="Q" horiz-adv-x="754" d="M721 -162Q684 -167 646 -163T581 -152Q557 -146 499 -116T347 -13Q324 -12 297 -6T242 12T186 41T137 82Q93 127 68 187T43 317Q43 384 65 447T132 558T241 636T390 665Q456 665 515 641T620 573T691 468T717 332Q717 268 699 214T650 119T579 49T493 6Q517 -11 546 -30T605 -68T667 -105T729 -137L721 -162ZM431 52Q448 42 458 33Q480 41 502 61T542 114T571 194T582 302Q582 378 566 438T522 539T454 603T368 625Q327 625 292 605T232 547T192 458T177 342Q177 282 189 229T225 135T281 66T355 28L431 52Z"  />
<glyph unicode="R" horiz-adv-x="646" d="M644 -9Q638 -9 630 -9T613 -8Q572 -6 544 0T494 17T456 46T423 87Q401 120 379 160T334 239Q322 262 306 271T261 281H238V130Q238 99 240 81T252 53T278 39T324 32V0H36V32Q65 35 82 39T109 52T121 80T124 130V521Q124 552 122 570T110 597T85 611T40 617V650H309Q371 650 411 642T481 614Q511 594 529 561T548 481Q548 448 538 423T511 377T471 342T422 316Q428 304 437 287T458 250T482 210T506 173Q533 131 550 107T585 66Q602 46 617 36T650 21L644 -9ZM271 318Q340 318 373 345Q399 367 411 397T423 466Q423 506 412 534T383 579T342 605T295 613Q275 613 264 610T247 603Q238 595 238 563V318H271Z"  />
<glyph unicode="S" horiz-adv-x="494" d="M398 491Q390 515 380 539T353 582T315 614T261 626Q213 626 186 596T159 524Q159 501 166 483T190 448T229 418T285 387Q321 369 352 350T408 306T446 252T460 183Q460 141 443 105T395 43T321 1T224 -15Q195 -15 170 -11T125 0Q105 6 91 11T68 21Q65 30 61 49T53 91T46 139T39 185L73 195Q80 171 93 142T128 86T177 42T243 24Q294 24 322 54T351 135Q351 183 318 214T228 275Q195 292 164 311T109 354T71 408T57 476Q57 515 72 549T115 609T185 650T277 665Q321 665 356 656T412 640Q415 612 419 579T430 498L398 491Z"  />
<glyph unicode="T" horiz-adv-x="632" d="M574 485Q556 559 535 583Q528 590 520 595T500 603T471 607T430 609H376V130Q376 99 379 81T392 53T422 39T476 32V0H164V32Q196 35 215 39T244 52T257 80T260 130V609H215Q184 609 165 608T132 603T112 594T100 581Q89 568 80 544T62 484H28Q31 535 34 585T40 675H63Q74 658 86 654T119 650H519Q539 650 550 655T574 675H597Q597 659 598 637T600 589T603 537T607 487L574 485Z"  />
<glyph unicode="U" horiz-adv-x="731" d="M721 617Q678 615 659 601T635 558Q632 536 630 503T628 411V312Q628 229 613 166T554 57Q519 21 471 3T371 -15Q323 -15 279 -4T200 35Q157 69 136 126T115 271V512Q115 547 113 566T101 596T75 610T30 617V650H316V617Q288 615 272 612T246 598T235 567T232 512V291Q232 175 274 112T403 48Q451 48 485 66T540 119T571 203T581 316V411Q581 470 578 503T572 560Q567 587 547 600T475 617V650H721V617Z"  />
<glyph unicode="V" horiz-adv-x="708" d="M697 617Q672 614 656 609T626 593T602 561T575 505Q563 478 541 423T490 298T431 147T371 -11H328Q302 58 274 133T218 280T166 415T123 523Q112 551 103 568T82 596T55 610T16 617V650H295V617Q268 613 253 609T233 598T229 581T237 554Q247 525 265 477T305 372T349 259T389 156H391Q411 208 431 260T469 360T502 452T528 530Q536 554 539 569T536 594T513 608T466 617V650H697V617Z"  />
<glyph unicode="W" horiz-adv-x="976" d="M964 617Q939 613 923 608T895 593T874 563T855 513Q838 464 796 332T690 -11H645Q603 105 561 222T477 453H475Q435 332 397 218T321 -11H276Q235 125 196 254T115 518Q106 548 98 566T78 594T52 609T14 617V650H291V617Q263 614 248 610T227 597T222 577T229 545Q255 452 282 361T338 177H340Q378 292 416 408T490 643H532Q574 525 616 409T702 175H704Q719 222 734 275T764 378T788 469T805 534Q810 556 811 571T805 595T782 609T735 617V650H964V617Z"  />
<glyph unicode="X" horiz-adv-x="679" d="M383 0V32Q407 36 420 40T437 51T439 67T429 88Q423 98 414 113T392 150T359 204T314 279Q278 225 249 177T200 94Q191 78 189 68T191 51T210 40T250 32V0H7V32Q49 37 76 49T126 88Q150 118 194 178T289 316Q252 377 219 431T150 541Q137 561 126 574T101 596T69 609T25 617V650H307V617Q285 613 274 609T258 600T256 588T263 572Q280 541 305 501T362 410Q388 447 412 485T455 558Q463 573 465 582T464 598T446 609T407 617V650H644V617Q618 614 600 610T567 598T539 578T510 546Q487 518 458 477T386 375Q429 307 468 245T549 119Q565 94 578 78T606 53T639 40T683 32V0H383Z"  />
<glyph unicode="Y" horiz-adv-x="648" d="M637 617Q612 614 596 610T566 596T542 572T517 535Q502 511 489 489T462 444T433 393T400 331Q389 311 386 299T382 264V133Q382 100 384 81T397 52T426 39T480 32V0H171V32Q203 34 222 38T250 52T263 81T266 133V252Q266 269 263 280T250 309Q227 352 198 404T126 533Q111 558 100 573T78 597T52 610T16 617V650H284V617Q259 614 246 610T229 599T226 583T236 561Q265 506 296 450T358 337Q370 359 385 387T415 444T444 502T467 553Q474 569 476 580T474 598T453 610T409 617V650H637V617Z"  />
<glyph unicode="Z" horiz-adv-x="613" d="M601 179Q598 162 594 138T584 87T573 38T564 0H39L29 16Q129 164 228 312T424 608H281Q242 608 218 606T179 600T157 589T143 573Q133 559 124 538T105 481L73 482Q76 536 79 587T85 675H110Q121 657 132 654T166 650H570L577 635Q479 488 383 344T190 47Q214 44 246 43T328 41Q400 41 444 48T509 76Q526 93 540 118T569 187L601 179Z"  />
<glyph unicode="[" horiz-adv-x="349" d="M118 -162V704H298V670Q259 667 238 663T206 650T193 624T191 578V-37Q191 -66 193 -82T205 -108T237 -122T298 -129V-162H118Z"  />
<glyph unicode="\" horiz-adv-x="332" d="M237 -45L31 665H96L302 -45H237Z"  />
<glyph unicode="]" horiz-adv-x="349" d="M51 -162V-129Q90 -126 111 -122T143 -109T156 -82T158 -36V578Q158 607 156 624T144 650T112 664T51 671V704H231V-162H51Z"  />
<glyph unicode="^" horiz-adv-x="561" d="M432 212L279 551L126 212H59L252 623H309L502 212H432Z"  />
<glyph unicode="_" horiz-adv-x="500" d="M0 -125V-75H500V-125H0Z"  />
<glyph unicode="`" horiz-adv-x="400" d="M213 490Q178 535 144 578T88 647L92 659Q96 662 109 665T136 671T164 675T185 676Q199 635 214 590T243 503L213 490Z"  />
<glyph unicode="a" horiz-adv-x="456" d="M353 -12Q336 -12 322 -6T297 8Q287 18 282 27T272 48Q257 38 242 28T212 8T185 -6T163 -12Q133 -12 109 -1T68 28T42 68T33 114Q33 152 52 174T111 211Q133 219 157 227T203 244T242 261T269 277V302Q269 352 250 378T199 405Q175 405 162 387Q146 368 133 319Q128 302 119 296T95 289Q86 289 77 293T59 303T46 318T40 337Q40 349 48 359T74 381Q87 390 105 401T145 422T190 440T234 452Q289 452 326 424Q356 401 366 369T376 296V123Q376 88 386 76T409 64Q418 64 426 66T443 73L454 43L353 -12ZM269 240Q254 232 236 222T201 204Q175 192 162 176T149 134Q149 114 155 100T171 76T192 63T213 58Q227 58 241 64T269 81V240Z"  />
<glyph unicode="b" horiz-adv-x="525" d="M233 436Q251 444 263 448T289 452Q332 452 369 435T434 390T476 323T492 242Q492 187 472 141T417 60T335 7T235 -12Q197 -12 158 -4T70 24V571Q70 593 69 606T61 627T42 638T7 643V671Q25 673 47 677T93 685T138 695T180 706V412L233 436ZM180 111Q180 92 185 77Q190 64 208 46T256 27Q305 27 338 74T371 212Q371 258 360 291T329 347T286 379T235 390Q205 390 180 379V111Z"  />
<glyph unicode="c" horiz-adv-x="422" d="M414 94Q380 47 334 18T243 -12Q193 -12 154 6T88 53T47 120T32 199Q32 256 58 305T133 392Q178 426 222 439T296 452Q324 452 347 445T383 427Q394 419 397 411T401 393Q401 383 397 374T386 358T374 347T361 342Q352 342 340 353Q286 401 239 401Q221 401 203 393T172 366T150 319T141 250Q141 199 156 165T194 110T241 80T284 71Q316 71 341 81T396 117L414 94Z"  />
<glyph unicode="d" horiz-adv-x="540" d="M532 26Q523 24 504 21T460 14T406 3T351 -13V48L290 10Q267 -4 253 -8T230 -12Q198 -12 164 1T100 42T51 109T32 205Q32 256 53 301T110 379T195 432T300 452Q308 452 321 451T351 445V573Q351 595 349 607T340 626T319 636T280 642V671Q302 674 327 677T376 685T422 695T461 706V122Q461 101 462 90T469 72T483 63T507 58L532 55V26ZM351 360Q337 386 315 399T267 412Q255 412 236 405T200 378T169 323T156 232Q156 186 168 154T198 100T239 69T281 59Q316 59 351 82V360Z"  />
<glyph unicode="e" horiz-adv-x="433" d="M409 93Q386 61 362 41T314 9T270 -7T235 -12Q187 -12 149 5T86 52T47 120T33 202Q33 257 52 302T104 380Q136 414 175 433T255 452Q288 452 317 439T367 404T401 354T413 295Q413 280 408 271T386 260Q379 259 355 257T296 253T220 248T140 244Q141 200 153 168T184 114T228 82T280 71Q309 71 337 82T392 117L409 93ZM233 413Q202 413 177 381T145 289Q212 289 281 292Q293 292 298 295T304 311Q304 330 299 348T285 381T263 404T233 413Z"  />
<glyph unicode="f" horiz-adv-x="319" d="M96 440V462Q96 500 108 535Q113 551 130 584T190 652Q217 675 244 688T306 706Q334 704 354 696T386 675Q396 665 397 655T394 634Q388 618 367 602Q351 590 336 603Q319 620 298 634T253 648Q237 648 228 641T214 620Q208 606 206 574T205 477L206 440H322Q323 436 323 430T322 417T317 404T309 395H206V109Q206 84 208 70T219 47T243 36T289 30V0H30V30Q53 33 66 36T86 46T94 68T96 106V395H29L24 407L53 440H96Z"  />
<glyph unicode="g" horiz-adv-x="483" d="M487 431Q482 418 470 400T444 374L387 378Q399 362 406 343T414 297Q414 257 398 228T356 179T297 149T229 139Q216 139 204 140T179 144Q172 138 166 129T160 111Q160 98 174 86T223 73Q249 73 272 74T320 75Q344 75 370 71T418 53T455 16T470 -46Q470 -87 448 -124T390 -189T307 -233T210 -249Q164 -249 130 -238T73 -209T39 -170T28 -127Q28 -95 56 -72Q73 -57 94 -43T134 -15Q105 -4 88 10T60 41Q52 52 49 66T47 90Q82 104 106 122T144 154Q102 169 76 204T49 287Q49 329 66 360T111 412T172 442T238 452Q267 452 291 446T341 426Q379 428 416 431T482 439L487 431ZM230 418Q204 418 183 389T162 303Q162 249 182 212T240 174Q271 175 289 204T308 290Q308 316 303 339T288 380T264 408T230 418ZM243 -18Q206 -18 187 -22T156 -39Q142 -52 134 -66T125 -99Q125 -118 134 -135T161 -166T202 -187T255 -195Q318 -195 351 -166T384 -95Q384 -69 370 -52T332 -28Q312 -22 292 -20T243 -18Z"  />
<glyph unicode="h" horiz-adv-x="544" d="M298 0V30Q317 32 328 35T346 46T353 67T355 102V274Q355 334 333 359T273 384Q251 384 229 376T189 348V102Q189 80 190 67T197 47T213 36T242 30V0H14V30Q36 32 48 35T68 45T77 66T79 104V574Q79 597 78 610T70 630T52 639T19 643V671Q57 676 103 685T189 706V385Q215 411 251 431T326 452Q390 452 427 411T464 284V104Q464 80 466 67T474 46T493 36T525 30V0H298Z"  />
<glyph unicode="i" horiz-adv-x="285" d="M143 524Q118 524 99 542T80 587Q80 614 99 632T144 651Q171 651 189 633T208 587Q208 561 190 543T143 524ZM30 0V30Q52 33 65 36T85 47T94 70T96 111V312Q96 336 94 349T86 370T69 381T38 388V416Q81 421 124 430T206 453V111Q206 85 207 71T216 48T236 36T273 30V0H30Z"  />
<glyph unicode="j" horiz-adv-x="277" d="M143 524Q118 524 100 542T81 587Q81 614 99 632T144 651Q170 651 188 633T207 587Q207 561 189 543T143 524ZM32 416Q76 421 120 430T206 453V122Q206 68 200 33T180 -39Q166 -75 147 -108T108 -167T73 -210T47 -235Q29 -249 15 -249Q4 -249 -9 -235T-23 -198Q-23 -175 0 -172Q61 -166 74 -146Q85 -127 90 -74Q96 5 96 115V306Q96 332 94 347T86 370T67 381T32 388V416Z"  />
<glyph unicode="k" horiz-adv-x="507" d="M366 -2Q352 14 335 37T300 86T262 141T224 196Q216 207 210 211T198 216Q193 216 188 214V106Q188 82 190 68T199 47T220 36T256 30V0H11V30Q35 33 48 36T68 46T77 68T79 106V573Q79 595 77 608T69 628T51 639T17 644V671Q52 675 98 684T188 706V243Q208 248 222 258T247 280Q264 298 281 324T310 367Q321 386 316 395T279 408V438L491 446V418Q443 410 416 399T365 363Q355 353 347 345T330 326T312 305T289 277Q298 262 318 235T360 179T404 123T438 82Q463 54 482 44T528 30V0L366 -2Z"  />
<glyph unicode="l" horiz-adv-x="269" d="M12 0V30Q35 33 48 36T68 47T77 69T79 108V571Q79 595 78 608T70 628T51 638T16 643V671Q58 676 105 685T189 706V108Q189 83 191 69T200 46T221 35T258 30V0H12Z"  />
<glyph unicode="m" horiz-adv-x="834" d="M586 0V30Q604 32 615 35T633 45T642 67T644 106V276Q644 335 622 358T568 381Q548 381 526 372T478 341Q479 332 479 322T480 300V100Q480 78 482 65T490 45T507 35T537 30V0H312V30Q331 32 342 35T360 45T368 65T370 101V280Q370 334 350 357T294 381Q271 381 249 370T206 342V101Q206 78 207 65T214 45T229 35T255 30V0H29V30Q51 32 64 35T85 45T94 66T96 104V313Q96 335 95 349T88 370T71 382T41 389V416Q76 421 119 431T204 455V376Q221 387 236 399T271 422Q293 436 313 444T356 452Q396 452 425 430T469 372Q489 387 507 400T545 425Q562 436 581 444T623 452Q686 452 720 411T754 294V101Q754 78 756 65T764 45T782 36T814 30V0H586Z"  />
<glyph unicode="n" horiz-adv-x="559" d="M316 0V30Q334 32 344 35T361 46T368 70T370 112V280Q370 334 349 357T293 381Q270 381 248 371T206 343V104Q206 80 207 67T214 46T230 35T259 30V0H27V30Q51 33 65 36T85 46T94 68T96 107V314Q96 337 95 350T87 371T70 381T40 389V416Q80 421 122 431T206 455V379Q221 390 236 401T270 423Q292 437 310 444T350 452Q410 452 444 411T479 295V105Q479 81 481 67T489 46T507 36T540 30V0H316Z"  />
<glyph unicode="o" horiz-adv-x="520" d="M264 452Q314 452 355 434T426 386T472 314T488 228Q488 168 468 123T416 48T343 3T261 -12Q205 -12 162 7T90 57T47 129T32 210Q32 271 53 316T109 392T184 437T264 452ZM251 416Q214 416 186 374T157 245Q157 198 165 158T188 89T224 42T272 25Q290 25 306 32T335 58T355 112T363 201Q363 300 334 358T251 416Z"  />
<glyph unicode="p" horiz-adv-x="538" d="M274 435Q303 452 327 452Q370 452 403 436T459 392T494 331T506 260Q506 204 486 159T432 79T354 21T261 -12Q241 -12 224 -8T196 2V-126Q196 -150 198 -164T208 -186T233 -197T279 -204V-234H16V-204Q40 -202 54 -199T75 -188T84 -167T86 -130V319Q86 341 84 354T76 373T57 383T25 389V417Q63 424 107 436T196 462V387L274 435ZM196 77Q211 62 236 50T282 38Q331 38 361 85T392 214Q392 258 382 290T354 342T316 372T273 382Q252 382 232 373T196 352V77Z"  />
<glyph unicode="q" horiz-adv-x="527" d="M265 -234V-204Q292 -201 308 -198T333 -188T344 -166T347 -128V25L257 -12Q199 -12 157 7T87 57T46 125T33 200Q33 253 55 299T116 380T203 433T308 452Q337 450 354 446T379 439Q390 435 396 434T410 433Q416 433 427 435T455 445L460 441Q460 433 459 425T458 406T457 377T456 334V-129Q456 -153 458 -166T467 -187T488 -198T527 -204V-234H265ZM347 370Q331 390 310 401T268 412Q248 412 228 401T192 368T165 312T155 233Q155 188 168 154T202 96T248 60T297 48Q312 48 324 51T347 59V370Z"  />
<glyph unicode="r" horiz-adv-x="392" d="M208 346Q234 391 263 421T324 452Q353 452 370 435T388 394Q388 372 376 355T345 330Q326 323 316 333Q303 344 293 349T271 354Q254 354 237 339T206 289V104Q206 80 208 67T218 46T242 35T288 30V0H30V30Q51 32 64 35T84 45T93 66T96 104V319Q96 340 95 352T87 371T70 381T39 389V415Q81 421 122 430T206 454V346H208Z"  />
<glyph unicode="s" horiz-adv-x="377" d="M303 315Q285 361 260 388T198 416Q175 416 159 399T142 356Q142 330 162 311T220 276Q250 263 274 250T315 220T342 182T352 132Q352 96 337 69T296 24T240 -3T178 -12Q158 -12 140 -9T105 -1T76 10T56 22Q53 28 51 42T46 75T42 114T40 151L68 154Q76 130 88 107T117 66T152 36T195 25Q221 25 238 42T256 85Q256 111 239 130T179 171Q160 180 138 192T96 221T65 261T52 315Q52 343 63 368T96 411T147 441T215 452Q248 452 269 447T308 435Q312 426 315 411T322 379T328 347T332 323L303 315Z"  />
<glyph unicode="t" horiz-adv-x="326" d="M241 0Q228 -6 217 -9T200 -12Q146 -12 117 17T87 112V395H22L17 407L45 440H87V513L183 587L196 582V440H300Q308 432 307 417T294 395H196V145Q196 115 202 98T217 71T236 58T254 55Q269 55 282 59T308 68L318 37L241 0Z"  />
<glyph unicode="u" horiz-adv-x="546" d="M533 24Q492 18 450 9T363 -12L356 -5V59Q341 48 328 38T297 16Q275 2 256 -5T214 -12Q155 -12 120 24T85 133V335Q85 354 84 365T77 383T60 393T28 402V430Q70 432 112 436T198 447Q195 390 195 298V157Q195 129 201 111T218 81T243 65T271 60Q294 60 315 67T356 95V335Q356 355 355 366T346 384T325 394T287 402V430Q331 432 375 435T466 447V119Q466 99 467 88T473 69T486 59T509 55L533 53V24Z"  />
<glyph unicode="v" horiz-adv-x="464" d="M481 411Q462 408 450 404T428 392T412 372T396 340Q370 280 333 192T252 -11H217Q181 82 147 168T76 342Q68 360 62 372T47 391T26 403T-5 411V440H226V411Q208 408 198 404T183 395T180 380T187 357Q196 331 207 300T230 239T252 181T270 134Q279 156 289 183T310 240T331 297T349 352Q359 380 351 392T302 411V440H481V411Z"  />
<glyph unicode="w" horiz-adv-x="684" d="M698 411Q680 408 669 404T649 392T635 372T621 340Q595 274 563 184T495 -11H461Q432 64 402 135T342 279Q313 207 286 136T229 -11H194Q165 81 135 170T75 346Q69 365 64 376T51 395T33 405T5 411V440H238V411Q216 407 204 403T186 393T180 378T186 355Q202 304 218 251T250 147H252Q279 215 305 286T360 436H395Q422 363 451 291T510 144H512Q519 165 527 191T544 246T560 301T573 349Q577 365 577 375T571 392T552 403T515 411V440H698V411Z"  />
<glyph unicode="x" horiz-adv-x="478" d="M251 0V30Q280 35 286 44T278 74L219 172Q204 149 190 125T163 80Q149 57 155 47T194 30V0H6V30Q27 34 42 38T69 49T91 66T116 94Q136 117 155 144T198 204L110 346Q99 364 91 375T73 393T50 404T16 411V440H239V411Q211 406 206 398T213 370L264 287Q280 310 293 331T317 370Q328 390 322 398T286 411V440H469V411Q447 408 433 405T409 397T388 383T365 360Q348 342 330 317T286 256L383 103Q396 83 406 70T429 49T454 37T487 30V0H251Z"  />
<glyph unicode="y" horiz-adv-x="463" d="M481 411Q462 408 450 404T430 392T414 372T396 338Q387 318 376 292T351 232T318 153T277 54Q252 -6 235 -49T206 -123T187 -178T173 -223Q168 -239 159 -244T138 -249Q127 -249 116 -245T95 -232T79 -214T72 -191Q72 -179 78 -171T99 -153Q126 -138 144 -121T178 -75Q188 -58 193 -46T201 -24Q205 -13 204 -2T198 22Q180 72 162 121T128 213T99 290T76 344Q69 362 63 373T48 392T27 404T-4 411V440H228V411Q211 408 201 405T187 396T183 382T188 361L269 129Q278 152 289 182T312 243T333 303T350 355Q359 381 350 392T301 411V440H481V411Z"  />
<glyph unicode="z" horiz-adv-x="436" d="M429 134Q416 96 405 61T383 0H37L26 15Q89 113 145 206T261 400H195Q169 400 152 397T121 386T98 364T77 329L61 298L33 310Q43 344 53 386T71 462H93Q98 450 110 445T152 440H391L399 427Q340 328 285 235T171 40H247Q274 40 293 43T329 56T358 81T386 121L402 147L429 134Z"  />
<glyph unicode="{" horiz-adv-x="353" d="M304 -168Q277 -168 249 -164T197 -145T158 -105T143 -33Q143 17 146 67T150 168Q150 180 148 194T137 220T110 242T59 254V287Q92 290 110 299T137 320T148 347T150 373Q150 424 147 474T143 570Q143 616 158 643T196 686T248 705T304 710V675Q276 672 259 663T233 640T221 612T218 580Q218 534 224 483T230 389Q230 347 211 315T143 273V269Q191 258 210 226T230 152Q230 108 224 58T218 -35Q218 -53 220 -69T232 -99T258 -121T304 -133V-168Z"  />
<glyph unicode="|" horiz-adv-x="267" d="M95 -250V750H172V-250H95Z"  />
<glyph unicode="}" horiz-adv-x="353" d="M295 254Q262 251 244 242T217 220T206 192T204 161Q204 116 207 66T210 -35Q210 -78 195 -104T157 -144T105 -163T49 -168V-134Q77 -131 94 -122T120 -99T133 -70T137 -37Q137 5 131 52T124 150Q124 193 144 225T212 269V273Q164 283 144 315T124 388Q124 439 130 487T137 581Q137 598 134 613T122 641T95 663T49 676V710Q76 710 105 706T157 687T195 646T210 574Q210 524 207 475T204 381Q204 366 205 350T216 321T243 299T295 287V254Z"  />
<glyph unicode="~" horiz-adv-x="578" d="M528 291Q509 240 477 212T397 183Q360 183 329 197T271 226Q248 240 228 248T186 256Q155 256 133 236T93 177L53 209Q68 243 86 263T122 295T157 310T189 314Q219 314 244 305T300 279Q328 263 353 253T403 242Q431 242 450 261T485 317L528 291Z"  />
<glyph unicode="&#xA0;" horiz-adv-x="221" />
<glyph unicode="&#xA1;" horiz-adv-x="282" d="M140 453Q169 453 189 434T209 382Q209 350 189 330T140 310Q110 310 91 330T71 382Q71 414 90 433T140 453ZM141 -224Q101 -224 86 -214T70 -186Q70 -173 72 -157T79 -111Q92 -28 101 55T121 229Q122 233 128 235T142 237T155 235T163 229Q173 139 182 56T204 -111Q209 -140 211 -156T213 -186Q213 -203 198 -213T141 -224Z"  />
<glyph unicode="&#xA2;" horiz-adv-x="493" d="M447 201Q418 162 380 135T301 100V3H262V97Q212 99 172 116T105 162T63 225T48 299Q48 356 74 403T146 484Q174 504 204 516T262 533V615H301V537Q306 538 309 538T318 538Q344 538 371 532T416 513Q424 507 427 500T430 485Q430 466 417 452T392 437Q389 437 386 439T376 448Q358 467 340 478T301 493V173Q341 173 371 187T429 227L447 201ZM262 495Q244 494 225 485T189 458T162 412T151 344Q151 305 161 276T187 227T222 196T262 179V495Z"  />
<glyph unicode="&#xA3;" horiz-adv-x="493" d="M235 291Q236 286 236 282T236 273Q236 248 228 226T205 184T172 147T133 116Q162 117 188 111T241 94Q275 80 310 67T373 53Q397 53 407 61T418 85Q418 105 411 121Q405 133 414 145Q433 171 452 171Q464 171 470 159T477 131Q477 113 470 95T450 61T424 31T395 7Q346 -27 296 -27Q263 -27 227 -8T156 30Q133 42 119 47T92 52Q81 52 72 42T56 12Q52 -3 41 -3Q30 -3 22 8T22 42Q29 60 47 81T81 121Q103 149 112 181T121 242Q121 256 120 268T117 291H25V335H111Q108 358 106 377T104 417Q104 460 124 506T195 589Q220 609 250 621T306 635Q342 635 367 622T404 596Q420 577 407 556Q402 548 396 542T384 530Q369 520 353 533Q331 550 308 565T256 581Q203 581 203 505Q203 470 212 427T230 335H393V291H235Z"  />
<glyph unicode="&#xA4;" horiz-adv-x="493" d="M415 89L349 164Q326 145 298 136T242 127Q213 127 185 136T133 164L67 89L22 136L92 203Q70 227 60 259T49 325Q49 359 59 391T92 446L22 514L67 560L134 485Q157 505 185 513T243 522Q270 522 298 514T350 485L415 560L462 514L392 447Q413 423 424 391T435 325Q435 291 424 259T392 203L462 136L415 89ZM243 462Q217 462 196 452T159 423T135 380T126 325Q126 294 134 269T159 225T196 197T243 187Q294 187 326 225T359 325Q359 385 327 423T243 462Z"  />
<glyph unicode="&#xA5;" horiz-adv-x="493" d="M481 592Q463 590 451 586T428 575T410 555T391 522Q382 505 373 487T353 448T329 399T300 336H409V297H293V229H410V189H293V125Q293 95 295 77T306 50T332 38T381 32V0H97V32Q127 34 144 37T170 50T181 77T183 126V189H71V229H183V297H71V336H172Q155 378 136 420T90 518Q79 541 71 554T54 575T34 586T6 592V623H237V592L213 587Q194 583 190 577T191 555Q208 508 230 458T271 360Q281 381 292 405T313 454T333 501T348 538Q357 561 354 572T327 587L300 592V623H481V592Z"  />
<glyph unicode="&#xA6;" horiz-adv-x="267" d="M95 325V675H172V325H95ZM95 -175V175H172V-175H95Z"  />
<glyph unicode="&#xA7;" horiz-adv-x="480" d="M428 204Q428 174 419 144T395 87T363 36T328 -8Q293 -46 259 -69T183 -104Q169 -104 148 -99T112 -82Q92 -65 92 -52Q93 -43 103 -30T119 -11Q125 -8 131 -7T142 -9Q150 -15 171 -25T224 -36Q248 -36 266 -24T285 12Q286 32 272 51T222 103Q197 128 168 156T116 207Q87 235 67 274T47 360Q47 416 72 463T130 545Q165 583 199 607T280 642Q300 642 319 635T350 617Q363 604 363 592Q362 578 353 568T338 553Q335 551 330 550T318 554Q310 561 288 571T237 581Q210 581 195 567T180 538Q180 523 188 508T217 474Q242 454 272 430T328 382Q348 366 366 348T398 307T420 260T428 204ZM102 415Q101 376 120 339T190 255Q236 213 267 182T313 131Q323 116 329 96T335 54L336 53Q353 79 361 104T369 155Q370 189 353 225T283 305Q272 314 258 326T229 351T200 377T176 400Q160 417 146 442T134 498L131 500Q119 482 111 462T102 415Z"  />
<glyph unicode="&#xA8;" horiz-adv-x="400" d="M103 526Q79 526 61 543T43 586Q43 612 61 629T104 646Q130 646 147 629T164 586Q164 561 147 544T103 526ZM295 526Q271 526 254 543T236 586Q236 612 253 629T296 646Q322 646 339 629T356 586Q356 561 339 544T295 526Z"  />
<glyph unicode="&#xA9;" horiz-adv-x="700" d="M350 629Q416 629 472 605T568 540T632 442T655 323Q655 260 632 205T569 109T472 43T350 19Q284 19 228 43T131 108T67 205T44 323Q44 386 67 442T131 539T228 605T350 629ZM351 592Q295 592 249 572T168 515T114 430T95 324Q95 268 114 219T167 134T248 78T351 57Q406 57 453 77T534 134T587 219T606 324Q606 381 587 430T534 515T453 571T351 592ZM503 256Q497 235 490 209T477 169Q460 163 430 156T369 149Q321 149 285 164T226 203T191 258T179 320Q179 363 195 396T238 451T300 486T375 498Q413 498 440 492T480 481Q482 461 484 441T491 391L467 386Q454 424 433 446T371 468Q320 468 292 428T263 328Q263 295 272 268T296 222T331 192T374 181Q413 181 437 202T478 262L503 256Z"  />
<glyph unicode="&#xAA;" horiz-adv-x="324" d="M240 270Q216 271 204 283T187 308Q169 295 148 283T112 270Q76 270 53 294T30 349Q30 394 83 413Q93 417 107 422T136 432T164 442T185 454V468Q185 491 174 504T142 517Q125 517 115 502T98 464Q93 445 73 445Q60 445 47 454T34 478Q34 493 56 508Q70 517 99 531T163 552Q205 552 232 531T259 463V356Q259 336 265 329T280 321Q286 321 291 323T303 327L310 305L240 270ZM185 425Q177 420 163 414T139 403Q125 395 118 387T111 364Q111 341 124 331T151 320Q161 320 169 324T185 334V425Z"  />
<glyph unicode="&#xAB;" horiz-adv-x="452" d="M206 34Q165 88 125 136T48 223Q84 261 124 309T206 412L235 395L148 223L235 52L206 34ZM378 34Q336 88 296 136T220 223Q255 261 295 309T378 412L406 395L319 223L406 52L378 34Z"  />
<glyph unicode="&#xAC;" horiz-adv-x="578" d="M462 100V313H49V373H530V100H462Z"  />
<glyph unicode="&#xAD;" horiz-adv-x="347" d="M286 195H47L61 261H301L286 195Z"  />
<glyph unicode="&#xAE;" horiz-adv-x="319" d="M160 659Q188 659 212 649T255 620T283 578T293 527Q293 501 283 478T255 436T213 407T160 396Q132 396 108 406T67 433T39 475T29 527Q29 554 39 578T66 620T108 648T160 659ZM161 635Q116 635 87 604T58 527Q58 481 87 451T161 420Q206 420 235 450T264 527Q264 573 235 604T161 635ZM233 458Q216 458 204 462T183 479Q176 488 172 496T164 510Q159 517 151 517H147V494Q147 480 150 478T166 475V459H97V475Q111 476 114 478T117 494V564Q117 578 114 580T98 583V599H168Q185 599 201 592T217 562Q217 549 210 541T190 527Q198 513 204 504T222 482Q231 472 236 471L233 458ZM156 534Q166 534 174 539Q184 546 184 559Q184 574 175 578T160 583Q153 583 150 581T147 571V534H156Z"  />
<glyph unicode="&#xAF;" horiz-adv-x="400" d="M81 544V610H320V544H81Z"  />
<glyph unicode="&#xB0;" horiz-adv-x="335" d="M167 664Q195 664 220 655T264 629T294 587T305 532Q305 500 294 476T264 434T220 408T167 399Q140 399 115 408T71 434T41 475T30 532Q30 562 41 586T71 628T115 655T167 664ZM169 621Q135 621 114 596T92 532Q92 493 113 468T169 442Q202 442 222 467T243 529Q243 571 223 596T169 621Z"  />
<glyph unicode="&#xB1;" horiz-adv-x="578" d="M324 306V109H256V306H49V366H256V550H324V366H530V306H324ZM49 0V59H530V0H49Z"  />
<glyph unicode="&#xB2;" horiz-adv-x="345" d="M315 496Q300 446 290 399H37V424Q60 442 88 466T141 517T183 572T200 628Q200 662 184 679T139 697Q113 697 92 681T57 645L37 664L71 711Q88 733 115 745T171 757Q195 757 217 750T255 728T280 694T290 648Q290 612 264 581T181 503L135 464V462H226Q253 462 265 469T291 503L315 496Z"  />
<glyph unicode="&#xB3;" horiz-adv-x="345" d="M207 607Q252 599 276 578T301 524Q301 490 280 466T231 425T172 400T124 392Q101 392 81 399T52 413Q37 428 44 444Q47 455 53 461T66 472Q76 479 88 470Q104 457 123 445T163 432Q183 432 199 447T215 500Q215 537 194 553T144 569Q123 569 104 562L98 590Q141 604 164 622T188 663Q188 680 176 692T141 704Q118 704 100 690T70 661L52 679L84 722Q98 735 121 746T174 757Q222 757 249 734T276 679Q276 667 270 656T256 638Q239 625 207 607Z"  />
<glyph unicode="&#xB4;" horiz-adv-x="400" d="M171 504Q177 520 185 544T201 594T216 639T226 666Q230 668 243 670T273 675T304 677T325 677L330 667L200 490L171 504Z"  />
<glyph unicode="&#xB5;" horiz-adv-x="529" d="M528 36Q514 18 487 3T424 -12Q392 -12 369 6T338 60H336Q311 31 281 10T216 -12Q190 -12 170 0T137 30H134V15Q134 -13 138 -50T147 -123T159 -189T170 -236L156 -249Q146 -248 134 -244T110 -235T88 -223T70 -208Q68 -201 68 -174T68 -109T69 -27T70 59V332Q70 364 69 389T66 431L177 453Q179 433 179 403T180 342V171Q180 140 187 119T205 86T231 68T259 62Q285 62 303 74T335 101V431L445 453V121Q445 82 457 69T484 55Q502 55 516 63L528 36Z"  />
<glyph unicode="&#xB6;" d="M444 505L357 495V24Q357 -39 340 -82T285 -164Q272 -178 257 -187T229 -203T205 -213T192 -216Q168 -216 150 -209T121 -192Q113 -184 111 -177T110 -161Q112 -153 119 -144T132 -130Q143 -122 154 -128Q186 -151 222 -151Q236 -151 250 -146T275 -123T293 -76T300 6V146L231 116Q225 113 214 113Q191 113 161 127T105 167T61 232T43 319Q43 370 63 412T114 484Q146 513 188 530T270 548H470L475 535L444 505Z"  />
<glyph unicode="&#xB7;" horiz-adv-x="244" d="M121 163Q92 163 73 182T54 234Q54 264 73 283T121 303Q151 303 171 284T191 234Q191 202 171 183T121 163Z"  />
<glyph unicode="&#xB8;" horiz-adv-x="400" d="M227 -26Q218 -37 219 -45T234 -66Q254 -86 263 -102T273 -135Q273 -168 241 -194T152 -236L139 -211Q169 -197 184 -181T199 -151Q200 -140 193 -132T177 -115Q157 -97 155 -82T169 -46L206 0H250L227 -26Z"  />
<glyph unicode="&#xB9;" horiz-adv-x="345" d="M73 399V426Q92 428 104 431T123 440T132 458T135 489V652Q135 680 130 688T100 699L73 701V727Q107 731 144 738T222 757V489Q222 470 224 459T233 441T252 431T283 426V399H73Z"  />
<glyph unicode="&#xBA;" horiz-adv-x="357" d="M181 552Q215 552 242 541T289 510T319 466T329 413Q329 378 316 352T282 307T234 280T178 270Q140 270 112 281T64 312T36 357T26 408Q26 443 40 470T77 515T127 542T181 552ZM172 521Q152 521 136 498T118 421Q117 369 135 335T183 301Q204 301 220 321T238 397Q240 454 222 487T172 521Z"  />
<glyph unicode="&#xBB;" horiz-adv-x="452" d="M76 412Q118 358 159 310T235 223Q199 185 159 137T76 35L48 51L135 223L48 394L76 412ZM246 412Q287 358 327 310T404 223Q368 185 328 137T246 35L217 51L304 223L217 394L246 412Z"  />
<glyph unicode="&#xBC;" horiz-adv-x="776" d="M77 278V305Q96 306 108 309T128 318T137 336T140 367V530Q140 558 135 566T104 577L77 579V606Q112 609 149 616T226 636V367Q226 348 228 337T238 320T257 310T288 305V278H77ZM207 -35L171 -8L575 650L613 625L207 -35ZM644 98V75Q644 48 654 38T696 25V0H502V25Q522 26 534 29T553 38T562 52T564 75V98H406V124Q453 187 498 245T591 358H644V140H700V98H644ZM564 276H562Q537 244 514 212T464 140H564V276Z"  />
<glyph unicode="&#xBD;" horiz-adv-x="779" d="M69 278V305Q88 306 100 309T119 318T128 336T131 367V530Q131 558 126 566T96 577L69 579V606Q103 609 141 616T218 636V367Q218 348 220 337T229 320T248 310T279 305V278H69ZM189 -35L153 -8L558 650L595 625L189 -35ZM717 97Q709 71 703 48T691 0H439V25Q462 43 490 66T543 117T585 173T602 229Q602 263 585 280T541 298Q514 298 494 282T459 246L439 265L472 312Q489 334 516 346T573 358Q622 358 656 330T691 249Q691 231 685 215T665 182T632 146T583 104L537 65V63H628Q641 63 650 64T666 70T679 82T693 104L717 97Z"  />
<glyph unicode="&#xBE;" horiz-adv-x="779" d="M208 -35L173 -8L577 650L614 625L208 -35ZM641 98V75Q641 48 651 38T693 25V0H499V25Q519 26 531 29T550 38T559 52T561 75V98H403V124Q450 187 495 245T588 358H641V140H697V98H641ZM561 276H559Q534 244 511 212T461 140H561V276ZM238 485Q283 478 307 457T331 403Q331 369 310 344T261 303T202 278T154 270Q131 270 111 277T82 292Q68 305 74 323Q78 333 84 339T97 351Q107 358 119 349Q134 336 154 323T194 310Q214 310 229 325T245 379Q245 416 224 431T175 447Q164 447 154 445T135 441L128 468Q171 482 195 500T219 541Q219 559 206 570T172 582Q149 582 130 568T100 539L83 557L115 600Q128 614 152 625T205 636Q253 636 279 612T306 557Q306 545 301 535T287 517Q279 511 267 503T238 487V485Z"  />
<glyph unicode="&#xBF;" horiz-adv-x="392" d="M201 453Q230 453 249 434T269 383Q269 352 250 332T201 312Q171 312 152 332T132 383Q132 414 151 433T201 453ZM187 242Q205 235 226 223T265 193T296 154T309 110Q309 82 289 54T216 -9Q197 -21 179 -33T145 -58T121 -81T112 -104Q112 -147 162 -147Q187 -147 207 -137T244 -116T272 -94T289 -84Q296 -84 305 -88T322 -101T335 -120T341 -143Q341 -157 336 -165T319 -184Q295 -205 263 -214T213 -224Q181 -224 150 -210T95 -173T55 -119T40 -54Q40 -25 51 -2T95 45Q108 55 126 67T161 93T189 122T201 152Q201 169 193 184T167 218L187 242Z"  />
<glyph unicode="&#xC0;" horiz-adv-x="700" d="M411 0V32Q433 35 446 39T464 50T469 67T463 94Q455 119 443 152T417 222H218Q208 194 198 166T179 107Q173 87 172 74T176 53T197 40T240 32V0H19V32Q43 35 59 40T86 55T108 85T131 136L336 653L380 665Q428 534 475 402T572 139Q584 106 594 87T615 56T642 40T682 32V0H411ZM321 501H318Q296 443 276 386T234 271H400L321 501ZM401 684L202 744L199 754Q200 761 205 772T218 795T234 815T248 828Q290 799 331 770T415 712L401 684Z"  />
<glyph unicode="&#xC1;" horiz-adv-x="700" d="M411 0V32Q433 35 446 39T464 50T469 67T463 94Q455 119 443 152T417 222H218Q208 194 198 166T179 107Q173 87 172 74T176 53T197 40T240 32V0H19V32Q43 35 59 40T86 55T108 85T131 136L336 653L380 665Q428 534 475 402T572 139Q584 106 594 87T615 56T642 40T682 32V0H411ZM321 501H318Q296 443 276 386T234 271H400L321 501ZM514 745L316 683L302 710Q344 739 387 768T469 825Q475 823 483 815T498 796T510 774T517 755L514 745Z"  />
<glyph unicode="&#xC2;" horiz-adv-x="700" d="M411 0V32Q433 35 446 39T464 50T469 67T463 94Q455 119 443 152T417 222H218Q208 194 198 166T179 107Q173 87 172 74T176 53T197 40T240 32V0H19V32Q43 35 59 40T86 55T108 85T131 136L336 653L380 665Q428 534 475 402T572 139Q584 106 594 87T615 56T642 40T682 32V0H411ZM321 501H318Q296 443 276 386T234 271H400L321 501ZM490 684Q457 698 426 713T362 745Q331 729 299 714T234 684L219 710Q252 736 286 766T349 827H376Q405 796 439 766T506 710L490 684Z"  />
<glyph unicode="&#xC3;" horiz-adv-x="700" d="M411 0V32Q433 35 446 39T464 50T469 67T463 94Q455 119 443 152T417 222H218Q208 194 198 166T179 107Q173 87 172 74T176 53T197 40T240 32V0H19V32Q43 35 59 40T86 55T108 85T131 136L336 653L380 665Q428 534 475 402T572 139Q584 106 594 87T615 56T642 40T682 32V0H411ZM321 501H318Q296 443 276 386T234 271H400L321 501ZM308 795Q322 795 335 791T371 776Q388 768 401 764T429 760Q446 760 457 771T477 802L506 787Q497 759 487 741T465 713T441 698T417 694Q400 694 383 700T347 715Q333 722 323 726T298 730Q271 730 248 686L220 705Q240 757 263 776T308 795Z"  />
<glyph unicode="&#xC4;" horiz-adv-x="700" d="M411 0V32Q433 35 446 39T464 50T469 67T463 94Q455 119 443 152T417 222H218Q208 194 198 166T179 107Q173 87 172 74T176 53T197 40T240 32V0H19V32Q43 35 59 40T86 55T108 85T131 136L336 653L380 665Q428 534 475 402T572 139Q584 106 594 87T615 56T642 40T682 32V0H411ZM321 501H318Q296 443 276 386T234 271H400L321 501ZM458 816Q484 816 501 799T519 755Q519 731 502 713T458 695Q434 695 416 713T398 755Q398 781 416 798T458 816ZM255 816Q281 816 298 799T316 755Q316 731 299 713T255 695Q231 695 213 713T195 755Q195 781 213 798T255 816Z"  />
<glyph unicode="&#xC5;" horiz-adv-x="700" d="M411 0V32Q433 35 446 39T464 50T469 67T463 94Q455 119 443 152T417 222H218Q208 194 198 166T179 107Q173 87 172 74T176 53T197 40T240 32V0H19V32Q43 35 59 40T86 55T108 85T131 136L336 653L380 665Q428 534 475 402T572 139Q584 106 594 87T615 56T642 40T682 32V0H411ZM321 501H318Q296 443 276 386T234 271H400L321 501ZM358 860Q375 860 392 854T422 837T443 809T451 773Q451 752 443 736T422 708T392 690T358 684Q340 684 324 690T295 707T274 735T266 773Q266 793 274 809T294 836T323 854T358 860ZM359 824Q339 824 326 810T313 773Q313 750 326 735T359 719Q379 719 391 734T403 773Q403 795 391 809T359 824Z"  />
<glyph unicode="&#xC6;" horiz-adv-x="877" d="M863 164Q861 150 856 128T846 81T836 34T827 0H336V33Q367 35 385 39T413 55T425 86T428 141V293H256Q239 260 227 235T204 188T186 149T169 111Q160 90 157 77T160 55T182 41T226 32V0H-13V32Q11 35 27 40T57 55T83 81T109 123Q166 226 223 334T340 562Q354 588 351 598T318 612L265 618V650H803Q803 642 804 626T806 590T809 548T813 505L780 500Q772 531 764 550T744 583Q732 597 710 603T641 609H578Q553 609 547 604T541 575V338H615Q648 338 668 340T699 350T716 372T726 413H761V214H726Q721 241 716 257T699 281T668 291T615 293H541V136Q541 95 546 77T566 51Q580 43 604 42T660 41Q703 41 731 48T776 74Q789 88 803 111T831 172L863 164ZM428 602Q423 602 417 601T403 593Q387 562 373 533T343 474T312 411T276 338H428V602Z"  />
<glyph unicode="&#xC7;" horiz-adv-x="671" d="M653 170Q648 150 641 128T627 84T613 44T599 13Q590 11 573 7T533 -1T484 -9T433 -13L422 -26Q413 -36 415 -44T429 -67Q449 -88 458 -104T468 -137Q468 -167 438 -194T347 -241L331 -212Q361 -197 376 -181T392 -152Q392 -141 385 -132T370 -115Q352 -95 349 -82T359 -51L388 -14Q297 -11 232 19T125 97T64 201T44 316Q44 393 72 457T151 568T275 639T436 665Q499 665 545 655T614 639Q620 597 625 560T636 478L601 471Q575 556 530 589T412 623Q358 623 315 601T241 539T195 448T179 337Q179 269 196 212T244 114T318 51T415 28Q486 28 534 67T620 183L653 170Z"  />
<glyph unicode="&#xC8;" horiz-adv-x="576" d="M562 163Q560 148 556 125T546 78T535 33T527 0H27V32Q60 35 79 38T107 52T120 80T123 130V519Q123 552 121 570T110 598T85 611T41 617V650H502Q502 642 503 627T505 591T508 547T512 502L478 497Q464 556 441 583Q429 597 406 603T336 609H278Q252 609 246 604T240 575V358H317Q349 358 368 360T399 369T415 392T426 433H460V235H426Q421 262 416 277T399 299T369 309T317 311H240V133Q240 97 245 78T264 51Q278 43 302 42T358 40Q404 40 431 46T475 73Q489 89 502 113T529 169L562 163ZM342 684L142 744L140 754Q141 761 146 772T159 795T174 815T188 828Q230 799 272 770T356 712L342 684Z"  />
<glyph unicode="&#xC9;" horiz-adv-x="576" d="M562 163Q560 148 556 125T546 78T535 33T527 0H27V32Q60 35 79 38T107 52T120 80T123 130V519Q123 552 121 570T110 598T85 611T41 617V650H502Q502 642 503 627T505 591T508 547T512 502L478 497Q464 556 441 583Q429 597 406 603T336 609H278Q252 609 246 604T240 575V358H317Q349 358 368 360T399 369T415 392T426 433H460V235H426Q421 262 416 277T399 299T369 309T317 311H240V133Q240 97 245 78T264 51Q278 43 302 42T358 40Q404 40 431 46T475 73Q489 89 502 113T529 169L562 163ZM443 745L244 683L231 710Q273 739 315 768T398 825Q404 823 412 815T427 796T439 774T446 755L443 745Z"  />
<glyph unicode="&#xCA;" horiz-adv-x="576" d="M562 163Q560 148 556 125T546 78T535 33T527 0H27V32Q60 35 79 38T107 52T120 80T123 130V519Q123 552 121 570T110 598T85 611T41 617V650H502Q502 642 503 627T505 591T508 547T512 502L478 497Q464 556 441 583Q429 597 406 603T336 609H278Q252 609 246 604T240 575V358H317Q349 358 368 360T399 369T415 392T426 433H460V235H426Q421 262 416 277T399 299T369 309T317 311H240V133Q240 97 245 78T264 51Q278 43 302 42T358 40Q404 40 431 46T475 73Q489 89 502 113T529 169L562 163ZM419 684Q386 698 355 713T291 745Q260 729 229 714T164 684L148 710Q181 736 215 766T278 827H305Q334 796 368 766T435 710L419 684Z"  />
<glyph unicode="&#xCB;" horiz-adv-x="576" d="M562 163Q560 148 556 125T546 78T535 33T527 0H27V32Q60 35 79 38T107 52T120 80T123 130V519Q123 552 121 570T110 598T85 611T41 617V650H502Q502 642 503 627T505 591T508 547T512 502L478 497Q464 556 441 583Q429 597 406 603T336 609H278Q252 609 246 604T240 575V358H317Q349 358 368 360T399 369T415 392T426 433H460V235H426Q421 262 416 277T399 299T369 309T317 311H240V133Q240 97 245 78T264 51Q278 43 302 42T358 40Q404 40 431 46T475 73Q489 89 502 113T529 169L562 163ZM393 817Q419 817 436 800T454 756Q454 732 437 715T393 697Q369 697 352 714T334 756Q334 782 351 799T393 817ZM190 817Q216 817 233 800T251 756Q251 732 234 714T190 696Q166 696 148 714T130 756Q130 782 148 799T190 817Z"  />
<glyph unicode="&#xCC;" horiz-adv-x="364" d="M38 0V32Q67 35 84 38T110 51T121 79T124 130V519Q124 551 122 569T110 597T84 611T38 617V650H325V617Q296 615 279 611T254 598T243 570T240 519V130Q240 98 242 80T253 52T279 39T325 32V0H38ZM236 684L36 744L34 754Q35 761 40 772T53 795T68 815T82 828Q124 799 166 770T250 712L236 684Z"  />
<glyph unicode="&#xCD;" horiz-adv-x="364" d="M38 0V32Q67 35 84 38T110 51T121 79T124 130V519Q124 551 122 569T110 597T84 611T38 617V650H325V617Q296 615 279 611T254 598T243 570T240 519V130Q240 98 242 80T253 52T279 39T325 32V0H38ZM331 745L133 683L119 710Q161 739 204 768T286 825Q292 823 300 815T315 796T327 774T334 755L331 745Z"  />
<glyph unicode="&#xCE;" horiz-adv-x="364" d="M38 0V32Q67 35 84 38T110 51T121 79T124 130V519Q124 551 122 569T110 597T84 611T38 617V650H325V617Q296 615 279 611T254 598T243 570T240 519V130Q240 98 242 80T253 52T279 39T325 32V0H38ZM310 684Q276 698 245 713T182 745Q151 729 119 714T54 684L39 710Q71 736 105 766T169 827H196Q225 796 259 766T326 710L310 684Z"  />
<glyph unicode="&#xCF;" horiz-adv-x="364" d="M38 0V32Q67 35 84 38T110 51T121 79T124 130V519Q124 551 122 569T110 597T84 611T38 617V650H325V617Q296 615 279 611T254 598T243 570T240 519V130Q240 98 242 80T253 52T279 39T325 32V0H38ZM283 816Q309 816 326 799T344 755Q344 731 327 714T283 696Q259 696 241 713T223 755Q223 781 241 798T283 816ZM80 816Q106 816 123 799T141 755Q141 731 124 713T80 695Q56 695 38 713T20 755Q20 781 38 798T80 816Z"  />
<glyph unicode="&#xD0;" horiz-adv-x="752" d="M344 650Q432 650 502 631T622 563Q660 527 684 474T709 351Q709 260 676 194T584 83Q527 40 454 20T289 0H44V32Q75 35 93 39T120 53T132 84T135 137V316H38V364H135V513Q135 546 133 566T122 596T97 611T53 618V650H344ZM251 135Q251 110 254 93T266 64T292 47T337 42Q393 42 437 63T513 123T560 215T577 333Q577 412 555 468T489 560Q460 586 419 598T331 611Q302 611 285 607T261 598Q255 593 253 583T251 551V364H398V316H251V135Z"  />
<glyph unicode="&#xD1;" horiz-adv-x="741" d="M722 618Q681 616 663 603T641 556Q638 533 636 495T633 389V-10H591L171 498H169V263Q169 196 171 159T176 99Q178 81 183 69T199 50T227 38T272 32V0H30V32Q72 35 91 48T115 96Q117 121 120 158T123 263V476Q123 501 123 517T120 545T114 564T103 581Q88 600 70 607T17 618V650H189L584 189H587V389Q587 457 585 495T580 555Q578 571 572 582T555 601T526 612T481 618V650H722V618ZM324 795Q339 795 351 791T387 776Q404 768 418 764T446 759Q462 759 473 771T494 802L522 787Q513 759 503 741T481 713T457 698T433 694Q417 694 400 700T363 715Q349 722 339 726T314 730Q286 730 265 685L237 705Q257 757 279 776T324 795Z"  />
<glyph unicode="&#xD2;" horiz-adv-x="759" d="M388 665Q455 665 514 641T619 573T690 468T717 332Q717 251 690 187T617 78T508 9T376 -15Q304 -15 243 10T137 81T68 188T43 322Q43 387 66 449T133 559T241 636T388 665ZM369 625Q330 625 296 606T235 551T193 463T178 344Q178 278 193 220T237 118T306 50T396 25Q434 25 467 42T526 95T567 182T582 305Q582 381 566 440T522 541T454 603T369 625ZM438 692L238 752L236 762Q237 769 242 780T255 803T270 823T284 836Q326 807 368 778T452 720L438 692Z"  />
<glyph unicode="&#xD3;" horiz-adv-x="759" d="M388 665Q455 665 514 641T619 573T690 468T717 332Q717 251 690 187T617 78T508 9T376 -15Q304 -15 243 10T137 81T68 188T43 322Q43 387 66 449T133 559T241 636T388 665ZM369 625Q330 625 296 606T235 551T193 463T178 344Q178 278 193 220T237 118T306 50T396 25Q434 25 467 42T526 95T567 182T582 305Q582 381 566 440T522 541T454 603T369 625ZM521 753L322 691L309 718Q351 747 393 776T476 833Q482 831 490 823T505 804T517 782T524 763L521 753Z"  />
<glyph unicode="&#xD4;" horiz-adv-x="759" d="M388 665Q455 665 514 641T619 573T690 468T717 332Q717 251 690 187T617 78T508 9T376 -15Q304 -15 243 10T137 81T68 188T43 322Q43 387 66 449T133 559T241 636T388 665ZM369 625Q330 625 296 606T235 551T193 463T178 344Q178 278 193 220T237 118T306 50T396 25Q434 25 467 42T526 95T567 182T582 305Q582 381 566 440T522 541T454 603T369 625ZM507 692Q474 706 443 721T379 753Q348 737 316 722T251 692L236 718Q269 744 303 774T366 835H393Q422 803 456 774T523 718L507 692Z"  />
<glyph unicode="&#xD5;" horiz-adv-x="759" d="M388 665Q455 665 514 641T619 573T690 468T717 332Q717 251 690 187T617 78T508 9T376 -15Q304 -15 243 10T137 81T68 188T43 322Q43 387 66 449T133 559T241 636T388 665ZM369 625Q330 625 296 606T235 551T193 463T178 344Q178 278 193 220T237 118T306 50T396 25Q434 25 467 42T526 95T567 182T582 305Q582 381 566 440T522 541T454 603T369 625ZM329 803Q344 803 356 799T392 784Q409 776 423 772T451 768Q467 768 478 780T499 810L527 796Q518 768 508 750T486 722T462 707T438 702Q422 702 405 708T368 724Q354 730 344 734T319 738Q292 738 269 694L242 713Q261 765 284 784T329 803Z"  />
<glyph unicode="&#xD6;" horiz-adv-x="759" d="M388 665Q455 665 514 641T619 573T690 468T717 332Q717 251 690 187T617 78T508 9T376 -15Q304 -15 243 10T137 81T68 188T43 322Q43 387 66 449T133 559T241 636T388 665ZM369 625Q330 625 296 606T235 551T193 463T178 344Q178 278 193 220T237 118T306 50T396 25Q434 25 467 42T526 95T567 182T582 305Q582 381 566 440T522 541T454 603T369 625ZM480 820Q506 820 523 803T541 759Q541 735 524 718T480 700Q456 700 438 717T420 759Q420 785 438 802T480 820ZM277 820Q303 820 320 803T338 759Q338 735 321 718T277 700Q253 700 235 717T217 759Q217 785 235 802T277 820Z"  />
<glyph unicode="&#xD7;" horiz-adv-x="578" d="M475 10L289 200L103 10L59 56L244 246L59 435L103 481L289 291L475 483L520 438L333 246L520 56L475 10Z"  />
<glyph unicode="&#xD8;" horiz-adv-x="763" d="M595 598Q650 553 686 486T722 335Q722 255 696 191T623 80T513 10T377 -15Q330 -15 286 -3T205 32L148 -49L119 -25L172 53Q114 98 80 167T45 321Q45 384 67 445T134 555T243 634T393 665Q440 665 483 654T562 620L613 696L645 674L595 598ZM516 553Q487 591 451 608T374 625Q334 625 298 606T235 551T192 462T176 339Q176 282 190 228T230 135L516 553ZM253 99Q279 63 316 44T394 25Q439 25 475 44T536 100T576 189T590 309Q590 375 576 428T539 519L253 99Z"  />
<glyph unicode="&#xD9;" horiz-adv-x="731" d="M721 617Q678 615 659 601T635 558Q632 536 630 503T628 411V312Q628 229 613 166T554 57Q519 21 471 3T371 -15Q323 -15 279 -4T200 35Q157 69 136 126T115 271V512Q115 547 113 566T101 596T75 610T30 617V650H316V617Q288 615 272 612T246 598T235 567T232 512V291Q232 175 274 112T403 48Q451 48 485 66T540 119T571 203T581 316V411Q581 470 578 503T572 560Q567 587 547 600T475 617V650H721V617ZM433 684L234 744L231 754Q232 761 237 772T250 795T266 815T280 828Q322 799 363 770T447 712L433 684Z"  />
<glyph unicode="&#xDA;" horiz-adv-x="731" d="M721 617Q678 615 659 601T635 558Q632 536 630 503T628 411V312Q628 229 613 166T554 57Q519 21 471 3T371 -15Q323 -15 279 -4T200 35Q157 69 136 126T115 271V512Q115 547 113 566T101 596T75 610T30 617V650H316V617Q288 615 272 612T246 598T235 567T232 512V291Q232 175 274 112T403 48Q451 48 485 66T540 119T571 203T581 316V411Q581 470 578 503T572 560Q567 587 547 600T475 617V650H721V617ZM531 745L333 683L319 710Q361 739 404 768T486 825Q492 823 500 815T515 796T527 774T534 755L531 745Z"  />
<glyph unicode="&#xDB;" horiz-adv-x="731" d="M721 617Q678 615 659 601T635 558Q632 536 630 503T628 411V312Q628 229 613 166T554 57Q519 21 471 3T371 -15Q323 -15 279 -4T200 35Q157 69 136 126T115 271V512Q115 547 113 566T101 596T75 610T30 617V650H316V617Q288 615 272 612T246 598T235 567T232 512V291Q232 175 274 112T403 48Q451 48 485 66T540 119T571 203T581 316V411Q581 470 578 503T572 560Q567 587 547 600T475 617V650H721V617ZM511 684Q477 698 446 713T383 745Q352 729 320 714T255 684L240 710Q272 736 306 766T370 827H397Q426 796 460 766T527 710L511 684Z"  />
<glyph unicode="&#xDC;" horiz-adv-x="731" d="M721 617Q678 615 659 601T635 558Q632 536 630 503T628 411V312Q628 229 613 166T554 57Q519 21 471 3T371 -15Q323 -15 279 -4T200 35Q157 69 136 126T115 271V512Q115 547 113 566T101 596T75 610T30 617V650H316V617Q288 615 272 612T246 598T235 567T232 512V291Q232 175 274 112T403 48Q451 48 485 66T540 119T571 203T581 316V411Q581 470 578 503T572 560Q567 587 547 600T475 617V650H721V617ZM482 816Q508 816 525 799T543 755Q543 731 526 714T482 696Q458 696 440 713T422 755Q422 781 440 798T482 816ZM279 816Q305 816 322 799T340 755Q340 731 323 713T279 695Q255 695 237 713T219 755Q219 781 237 798T279 816Z"  />
<glyph unicode="&#xDD;" horiz-adv-x="648" d="M637 617Q612 614 596 610T566 596T542 572T517 535Q502 511 489 489T462 444T433 393T400 331Q389 311 386 299T382 264V133Q382 100 384 81T397 52T426 39T480 32V0H171V32Q203 34 222 38T250 52T263 81T266 133V252Q266 269 263 280T250 309Q227 352 198 404T126 533Q111 558 100 573T78 597T52 610T16 617V650H284V617Q259 614 246 610T229 599T226 583T236 561Q265 506 296 450T358 337Q370 359 385 387T415 444T444 502T467 553Q474 569 476 580T474 598T453 610T409 617V650H637V617ZM492 745L294 683L280 710Q322 739 365 768T447 825Q453 823 461 815T476 796T488 774T495 755L492 745Z"  />
<glyph unicode="&#xDE;" horiz-adv-x="577" d="M315 617Q289 614 273 611T249 597T239 565T236 508Q258 509 279 509T321 509Q424 509 483 468T542 337Q542 293 525 259T477 200T404 163T311 150L236 166V122Q236 94 239 78T252 52T280 39T329 32V0H39V32Q67 34 83 38T108 53T119 81T122 129V523Q122 553 120 570T109 597T86 611T44 617V650H315V617ZM236 205Q244 201 257 198T290 195Q308 195 330 201T370 224T402 268T415 336Q415 372 405 398T378 440T337 463T288 471Q271 471 261 469T245 461Q240 458 238 452T236 432V205Z"  />
<glyph unicode="&#xDF;" horiz-adv-x="562" d="M97 451Q97 479 100 499T112 540Q120 561 139 592T202 657Q231 679 263 692T330 707Q411 705 455 662T500 553Q501 541 498 533T490 518Q442 483 419 454T396 396Q397 367 416 345T463 297Q476 285 489 271T513 240T530 204T537 162Q537 127 519 96T473 40T411 2T345 -12Q310 -12 288 2Q263 18 270 40Q272 46 277 54T290 67Q302 76 311 68Q350 35 387 35Q395 35 404 38T422 49T435 69T441 100Q441 129 426 154T382 205Q342 243 320 274T297 339Q297 356 302 370T316 397T338 423T366 453Q380 467 389 476T403 491Q407 497 408 506T409 525Q409 550 401 574T378 618T342 649T297 661Q265 661 247 639T220 582T209 503T207 412V105Q207 82 208 69T214 48T227 37T251 31V0H31V31Q53 33 66 36T86 48T95 69T97 104V392H31L27 404L54 440H97V451Z"  />
<glyph unicode="&#xE0;" horiz-adv-x="456" d="M353 -12Q336 -12 322 -6T297 8Q287 18 282 27T272 48Q257 38 242 28T212 8T185 -6T163 -12Q133 -12 109 -1T68 28T42 68T33 114Q33 152 52 174T111 211Q133 219 157 227T203 244T242 261T269 277V302Q269 352 250 378T199 405Q175 405 162 387Q146 368 133 319Q128 302 119 296T95 289Q86 289 77 293T59 303T46 318T40 337Q40 349 48 359T74 381Q87 390 105 401T145 422T190 440T234 452Q289 452 326 424Q356 401 366 369T376 296V123Q376 88 386 76T409 64Q418 64 426 66T443 73L454 43L353 -12ZM269 240Q254 232 236 222T201 204Q175 192 162 176T149 134Q149 114 155 100T171 76T192 63T213 58Q227 58 241 64T269 81V240ZM234 490Q216 512 198 534T164 577T133 616T109 647L113 659Q117 662 130 665T157 671T185 675T206 676Q220 635 235 590T264 503L234 490Z"  />
<glyph unicode="&#xE1;" horiz-adv-x="456" d="M353 -12Q336 -12 322 -6T297 8Q287 18 282 27T272 48Q257 38 242 28T212 8T185 -6T163 -12Q133 -12 109 -1T68 28T42 68T33 114Q33 152 52 174T111 211Q133 219 157 227T203 244T242 261T269 277V302Q269 352 250 378T199 405Q175 405 162 387Q146 368 133 319Q128 302 119 296T95 289Q86 289 77 293T59 303T46 318T40 337Q40 349 48 359T74 381Q87 390 105 401T145 422T190 440T234 452Q289 452 326 424Q356 401 366 369T376 296V123Q376 88 386 76T409 64Q418 64 426 66T443 73L454 43L353 -12ZM269 240Q254 232 236 222T201 204Q175 192 162 176T149 134Q149 114 155 100T171 76T192 63T213 58Q227 58 241 64T269 81V240ZM183 504Q189 520 197 544T213 594T228 639T238 666Q242 668 255 670T285 675T316 677T337 677L342 667L212 490L183 504Z"  />
<glyph unicode="&#xE2;" horiz-adv-x="456" d="M353 -12Q336 -12 322 -6T297 8Q287 18 282 27T272 48Q257 38 242 28T212 8T185 -6T163 -12Q133 -12 109 -1T68 28T42 68T33 114Q33 152 52 174T111 211Q133 219 157 227T203 244T242 261T269 277V302Q269 352 250 378T199 405Q175 405 162 387Q146 368 133 319Q128 302 119 296T95 289Q86 289 77 293T59 303T46 318T40 337Q40 349 48 359T74 381Q87 390 105 401T145 422T190 440T234 452Q289 452 326 424Q356 401 366 369T376 296V123Q376 88 386 76T409 64Q418 64 426 66T443 73L454 43L353 -12ZM269 240Q254 232 236 222T201 204Q175 192 162 176T149 134Q149 114 155 100T171 76T192 63T213 58Q227 58 241 64T269 81V240ZM314 487Q287 510 264 533T219 580Q197 557 174 534T124 487L98 507Q128 551 152 591T202 676H235Q261 631 285 591T340 507L314 487Z"  />
<glyph unicode="&#xE3;" horiz-adv-x="456" d="M353 -12Q336 -12 322 -6T297 8Q287 18 282 27T272 48Q257 38 242 28T212 8T185 -6T163 -12Q133 -12 109 -1T68 28T42 68T33 114Q33 152 52 174T111 211Q133 219 157 227T203 244T242 261T269 277V302Q269 352 250 378T199 405Q175 405 162 387Q146 368 133 319Q128 302 119 296T95 289Q86 289 77 293T59 303T46 318T40 337Q40 349 48 359T74 381Q87 390 105 401T145 422T190 440T234 452Q289 452 326 424Q356 401 366 369T376 296V123Q376 88 386 76T409 64Q418 64 426 66T443 73L454 43L353 -12ZM269 240Q254 232 236 222T201 204Q175 192 162 176T149 134Q149 114 155 100T171 76T192 63T213 58Q227 58 241 64T269 81V240ZM81 533Q98 586 121 609T170 633Q183 633 195 629T230 613Q247 604 260 599T286 593Q302 593 313 606T334 639L361 625Q352 593 342 574T320 543T297 528T277 524Q260 524 244 530T210 547Q193 556 182 560T158 565Q145 565 133 554T109 515L81 533Z"  />
<glyph unicode="&#xE4;" horiz-adv-x="456" d="M353 -12Q336 -12 322 -6T297 8Q287 18 282 27T272 48Q257 38 242 28T212 8T185 -6T163 -12Q133 -12 109 -1T68 28T42 68T33 114Q33 152 52 174T111 211Q133 219 157 227T203 244T242 261T269 277V302Q269 352 250 378T199 405Q175 405 162 387Q146 368 133 319Q128 302 119 296T95 289Q86 289 77 293T59 303T46 318T40 337Q40 349 48 359T74 381Q87 390 105 401T145 422T190 440T234 452Q289 452 326 424Q356 401 366 369T376 296V123Q376 88 386 76T409 64Q418 64 426 66T443 73L454 43L353 -12ZM269 240Q254 232 236 222T201 204Q175 192 162 176T149 134Q149 114 155 100T171 76T192 63T213 58Q227 58 241 64T269 81V240ZM122 526Q98 526 80 543T62 586Q62 612 80 629T123 646Q149 646 166 629T183 586Q183 561 166 544T122 526ZM314 526Q290 526 273 543T255 586Q255 612 272 629T315 646Q341 646 358 629T375 586Q375 561 358 544T314 526Z"  />
<glyph unicode="&#xE5;" horiz-adv-x="456" d="M353 -12Q336 -12 322 -6T297 8Q287 18 282 27T272 48Q257 38 242 28T212 8T185 -6T163 -12Q133 -12 109 -1T68 28T42 68T33 114Q33 152 52 174T111 211Q133 219 157 227T203 244T242 261T269 277V302Q269 352 250 378T199 405Q175 405 162 387Q146 368 133 319Q128 302 119 296T95 289Q86 289 77 293T59 303T46 318T40 337Q40 349 48 359T74 381Q87 390 105 401T145 422T190 440T234 452Q289 452 326 424Q356 401 366 369T376 296V123Q376 88 386 76T409 64Q418 64 426 66T443 73L454 43L353 -12ZM269 240Q254 232 236 222T201 204Q175 192 162 176T149 134Q149 114 155 100T171 76T192 63T213 58Q227 58 241 64T269 81V240ZM220 499Q202 499 186 505T156 523T135 551T127 589Q127 609 135 625T156 652T186 670T221 676Q238 676 254 670T284 653T305 625T313 589Q313 568 305 552T284 523T254 505T220 499ZM221 535Q241 535 253 550T265 589Q265 611 253 625T220 640Q201 640 189 626T176 589Q176 565 188 550T221 535Z"  />
<glyph unicode="&#xE6;" horiz-adv-x="671" d="M646 91Q623 59 599 39T551 8T507 -7T475 -12Q418 -12 378 11T313 74L280 48Q253 25 220 7T163 -12Q133 -12 109 -1T69 27T43 67T34 111Q34 150 52 173T111 211Q131 218 155 226T202 244T245 261T276 278V303Q276 351 254 378T203 405Q189 405 180 400T163 386Q150 367 137 320Q132 303 123 297T99 290Q91 290 82 294T64 304T49 318T43 335Q43 359 78 382Q106 402 149 422T237 452Q258 452 278 446T315 429Q328 421 338 409T353 385Q382 416 419 434T491 452Q525 452 554 439T606 404T640 353T652 294Q652 277 647 269T626 258Q620 256 596 254T536 250T458 246T374 242Q374 197 385 165T417 111T463 80T518 69Q544 69 572 80T628 114L646 91ZM468 412Q437 412 411 380T379 285Q415 286 450 286T520 288Q531 288 536 293T542 312Q542 331 537 349T523 381T500 403T468 412ZM215 61Q235 61 257 71T297 104Q283 134 279 171T275 241Q261 233 241 224T200 205Q175 192 162 177T149 136Q149 117 155 103T170 80T192 66T215 61Z"  />
<glyph unicode="&#xE7;" horiz-adv-x="421" d="M416 95Q386 55 350 28T271 -7L257 -26Q249 -36 252 -44T269 -66Q287 -87 296 -103T305 -136Q305 -167 274 -194T185 -238L172 -211Q201 -197 217 -181T233 -151Q233 -140 226 -131T212 -114Q193 -94 190 -81T201 -50L232 -12Q187 -9 150 8T87 53T47 118T33 199Q33 255 59 305T134 392Q182 427 225 440T297 453Q318 453 344 446T386 427Q396 419 399 412T401 396Q401 386 397 376T386 359T373 347T361 342Q352 342 340 353Q312 379 287 390T238 401Q221 401 205 393T174 366T152 320T143 250Q143 198 158 164T196 108T242 79T284 70Q316 70 340 80T397 118L416 95Z"  />
<glyph unicode="&#xE8;" horiz-adv-x="433" d="M409 93Q386 61 362 41T314 9T270 -7T235 -12Q187 -12 149 5T86 52T47 120T33 202Q33 257 52 302T104 380Q136 414 175 433T255 452Q288 452 317 439T367 404T401 354T413 295Q413 280 408 271T386 260Q379 259 355 257T296 253T220 248T140 244Q141 200 153 168T184 114T228 82T280 71Q309 71 337 82T392 117L409 93ZM233 413Q202 413 177 381T145 289Q212 289 281 292Q293 292 298 295T304 311Q304 330 299 348T285 381T263 404T233 413ZM241 490Q206 535 172 578T116 647L120 659Q124 662 137 665T164 671T192 675T213 676Q227 635 242 590T271 503L241 490Z"  />
<glyph unicode="&#xE9;" horiz-adv-x="433" d="M409 93Q386 61 362 41T314 9T270 -7T235 -12Q187 -12 149 5T86 52T47 120T33 202Q33 257 52 302T104 380Q136 414 175 433T255 452Q288 452 317 439T367 404T401 354T413 295Q413 280 408 271T386 260Q379 259 355 257T296 253T220 248T140 244Q141 200 153 168T184 114T228 82T280 71Q309 71 337 82T392 117L409 93ZM233 413Q202 413 177 381T145 289Q212 289 281 292Q293 292 298 295T304 311Q304 330 299 348T285 381T263 404T233 413ZM199 504Q205 520 213 544T229 594T244 639T254 666Q258 668 271 670T301 675T332 677T353 677L358 667L228 490L199 504Z"  />
<glyph unicode="&#xEA;" horiz-adv-x="433" d="M409 93Q386 61 362 41T314 9T270 -7T235 -12Q187 -12 149 5T86 52T47 120T33 202Q33 257 52 302T104 380Q136 414 175 433T255 452Q288 452 317 439T367 404T401 354T413 295Q413 280 408 271T386 260Q379 259 355 257T296 253T220 248T140 244Q141 200 153 168T184 114T228 82T280 71Q309 71 337 82T392 117L409 93ZM233 413Q202 413 177 381T145 289Q212 289 281 292Q293 292 298 295T304 311Q304 330 299 348T285 381T263 404T233 413ZM326 487Q299 510 276 533T231 580Q209 557 186 534T136 487L110 507Q140 551 164 591T214 676H247Q273 631 297 591T352 507L326 487Z"  />
<glyph unicode="&#xEB;" horiz-adv-x="433" d="M409 93Q386 61 362 41T314 9T270 -7T235 -12Q187 -12 149 5T86 52T47 120T33 202Q33 257 52 302T104 380Q136 414 175 433T255 452Q288 452 317 439T367 404T401 354T413 295Q413 280 408 271T386 260Q379 259 355 257T296 253T220 248T140 244Q141 200 153 168T184 114T228 82T280 71Q309 71 337 82T392 117L409 93ZM233 413Q202 413 177 381T145 289Q212 289 281 292Q293 292 298 295T304 311Q304 330 299 348T285 381T263 404T233 413ZM131 526Q107 526 89 543T71 586Q71 612 89 629T132 646Q158 646 175 629T192 586Q192 561 175 544T131 526ZM323 526Q299 526 282 543T264 586Q264 612 281 629T324 646Q350 646 367 629T384 586Q384 561 367 544T323 526Z"  />
<glyph unicode="&#xEC;" horiz-adv-x="286" d="M31 0V30Q53 33 66 36T85 49T94 74T96 117V310Q96 333 95 347T88 369T71 381T38 388V416Q81 421 124 430T206 453V117Q206 90 207 74T216 49T236 37T272 30V0H31ZM149 490Q114 535 80 578T24 647L28 659Q32 662 45 665T72 671T100 675T121 676Q135 635 150 590T179 503L149 490Z"  />
<glyph unicode="&#xED;" horiz-adv-x="286" d="M31 0V30Q53 33 66 36T85 49T94 74T96 117V310Q96 333 95 347T88 369T71 381T38 388V416Q81 421 124 430T206 453V117Q206 90 207 74T216 49T236 37T272 30V0H31ZM110 504Q116 520 124 544T140 594T155 639T165 666Q169 668 182 670T212 675T243 677T264 677L269 667L139 490L110 504Z"  />
<glyph unicode="&#xEE;" horiz-adv-x="286" d="M31 0V30Q53 33 66 36T85 49T94 74T96 117V310Q96 333 95 347T88 369T71 381T38 388V416Q81 421 124 430T206 453V117Q206 90 207 74T216 49T236 37T272 30V0H31ZM236 487Q209 510 187 533T141 580Q119 557 97 534T46 487L21 507Q51 551 75 591T125 676H158Q183 631 207 591T263 507L236 487Z"  />
<glyph unicode="&#xEF;" horiz-adv-x="286" d="M31 0V30Q53 33 66 36T85 49T94 74T96 117V310Q96 333 95 347T88 369T71 381T38 388V416Q81 421 124 430T206 453V117Q206 90 207 74T216 49T236 37T272 30V0H31ZM43 526Q19 526 1 543T-17 586Q-17 612 1 629T44 646Q70 646 87 629T104 586Q104 561 87 544T43 526ZM235 526Q211 526 194 543T176 586Q176 612 193 629T236 646Q262 646 279 629T296 586Q296 561 279 544T235 526Z"  />
<glyph unicode="&#xF0;" horiz-adv-x="516" d="M340 596Q408 530 443 448T479 269Q479 194 460 141T410 54T337 4T252 -12Q199 -12 158 7T89 58T47 130T33 213Q33 272 54 316T108 391T182 436T266 452Q283 452 299 449T332 438Q317 500 271 558L126 483L108 518L244 587Q204 625 159 646T75 673Q70 679 72 690T83 706Q143 702 201 681T307 624L441 693L460 657L340 596ZM261 415Q216 415 187 370T157 242Q157 193 164 154T186 86T220 42T267 26Q284 26 300 34T330 65T351 128T360 231Q361 291 355 326T335 378Q321 395 303 405T261 415Z"  />
<glyph unicode="&#xF1;" horiz-adv-x="559" d="M316 0V30Q334 32 344 35T361 46T368 70T370 112V280Q370 334 349 357T293 381Q270 381 248 371T206 343V104Q206 80 207 67T214 46T230 35T259 30V0H27V30Q51 33 65 36T85 46T94 68T96 107V314Q96 337 95 350T87 371T70 381T40 389V416Q80 421 122 431T206 455V379Q221 390 236 401T270 423Q292 437 310 444T350 452Q410 452 444 411T479 295V105Q479 81 481 67T489 46T507 36T540 30V0H316ZM140 533Q157 586 180 609T228 633Q241 633 253 629T289 613Q306 604 318 599T345 593Q360 593 371 606T392 639L419 625Q410 593 400 574T378 543T355 528T335 524Q318 524 302 530T269 547Q252 556 241 560T216 565Q203 565 191 554T167 515L140 533Z"  />
<glyph unicode="&#xF2;" horiz-adv-x="520" d="M264 452Q314 452 355 434T426 386T472 314T488 228Q488 168 468 123T416 48T343 3T261 -12Q205 -12 162 7T90 57T47 129T32 210Q32 271 53 316T109 392T184 437T264 452ZM251 416Q214 416 186 374T157 245Q157 198 165 158T188 89T224 42T272 25Q290 25 306 32T335 58T355 112T363 201Q363 300 334 358T251 416ZM267 490Q232 535 198 578T142 647L146 659Q150 662 163 665T190 671T218 675T239 676Q253 635 268 590T297 503L267 490Z"  />
<glyph unicode="&#xF3;" horiz-adv-x="520" d="M264 452Q314 452 355 434T426 386T472 314T488 228Q488 168 468 123T416 48T343 3T261 -12Q205 -12 162 7T90 57T47 129T32 210Q32 271 53 316T109 392T184 437T264 452ZM251 416Q214 416 186 374T157 245Q157 198 165 158T188 89T224 42T272 25Q290 25 306 32T335 58T355 112T363 201Q363 300 334 358T251 416ZM226 504Q232 520 240 544T256 594T271 639T281 666Q285 668 298 670T328 675T359 677T380 677L385 667L255 490L226 504Z"  />
<glyph unicode="&#xF4;" horiz-adv-x="520" d="M264 452Q314 452 355 434T426 386T472 314T488 228Q488 168 468 123T416 48T343 3T261 -12Q205 -12 162 7T90 57T47 129T32 210Q32 271 53 316T109 392T184 437T264 452ZM251 416Q214 416 186 374T157 245Q157 198 165 158T188 89T224 42T272 25Q290 25 306 32T335 58T355 112T363 201Q363 300 334 358T251 416ZM354 487Q327 510 305 533T259 580Q237 557 215 534T164 487L139 507Q169 551 193 591T243 676H276Q301 631 325 591T381 507L354 487Z"  />
<glyph unicode="&#xF5;" horiz-adv-x="520" d="M264 452Q314 452 355 434T426 386T472 314T488 228Q488 168 468 123T416 48T343 3T261 -12Q205 -12 162 7T90 57T47 129T32 210Q32 271 53 316T109 392T184 437T264 452ZM251 416Q214 416 186 374T157 245Q157 198 165 158T188 89T224 42T272 25Q290 25 306 32T335 58T355 112T363 201Q363 300 334 358T251 416ZM119 533Q136 586 159 609T207 633Q220 633 232 629T268 613Q285 604 297 599T324 593Q339 593 350 606T371 639L398 625Q389 593 379 574T357 543T334 528T314 524Q297 524 281 530T248 547Q231 556 220 560T195 565Q182 565 170 554T146 515L119 533Z"  />
<glyph unicode="&#xF6;" horiz-adv-x="520" d="M264 452Q314 452 355 434T426 386T472 314T488 228Q488 168 468 123T416 48T343 3T261 -12Q205 -12 162 7T90 57T47 129T32 210Q32 271 53 316T109 392T184 437T264 452ZM251 416Q214 416 186 374T157 245Q157 198 165 158T188 89T224 42T272 25Q290 25 306 32T335 58T355 112T363 201Q363 300 334 358T251 416ZM163 526Q139 526 121 543T103 586Q103 612 121 629T164 646Q190 646 207 629T224 586Q224 561 207 544T163 526ZM355 526Q331 526 314 543T296 586Q296 612 313 629T356 646Q382 646 399 629T416 586Q416 561 399 544T355 526Z"  />
<glyph unicode="&#xF7;" horiz-adv-x="578" d="M291 351Q270 351 253 367T235 407Q235 430 252 447T291 464Q315 464 331 447T348 407Q348 384 332 368T291 351ZM49 224V284H530V224H49ZM290 157Q311 157 328 141T346 101Q346 78 329 61T290 44Q266 44 250 61T233 101Q233 124 249 140T290 157Z"  />
<glyph unicode="&#xF8;" horiz-adv-x="525" d="M405 406Q448 374 470 328T492 230Q492 170 472 125T420 49T347 3T263 -12Q199 -12 146 17L109 -36L81 -14L117 37Q75 69 54 116T33 211Q33 271 54 316T110 391T185 437T267 452Q299 452 325 446T376 425L411 476L439 456L405 406ZM334 365Q320 389 299 401T254 414Q236 414 218 404T184 373T159 317T149 235Q149 203 155 172T172 117L334 365ZM191 81Q205 55 225 40T272 25Q290 25 308 33T342 63T366 120T376 212Q376 243 371 273T354 330L191 81Z"  />
<glyph unicode="&#xF9;" horiz-adv-x="546" d="M533 24Q492 18 450 9T363 -12L356 -5V59Q341 48 328 38T297 16Q275 2 256 -5T214 -12Q155 -12 120 24T85 133V335Q85 354 84 365T77 383T60 393T28 402V430Q70 432 112 436T198 447Q195 390 195 298V157Q195 129 201 111T218 81T243 65T271 60Q294 60 315 67T356 95V335Q356 355 355 366T346 384T325 394T287 402V430Q331 432 375 435T466 447V119Q466 99 467 88T473 69T486 59T509 55L533 53V24ZM276 490Q241 535 207 578T151 647L155 659Q159 662 172 665T199 671T227 675T248 676Q262 635 277 590T306 503L276 490Z"  />
<glyph unicode="&#xFA;" horiz-adv-x="546" d="M533 24Q492 18 450 9T363 -12L356 -5V59Q341 48 328 38T297 16Q275 2 256 -5T214 -12Q155 -12 120 24T85 133V335Q85 354 84 365T77 383T60 393T28 402V430Q70 432 112 436T198 447Q195 390 195 298V157Q195 129 201 111T218 81T243 65T271 60Q294 60 315 67T356 95V335Q356 355 355 366T346 384T325 394T287 402V430Q331 432 375 435T466 447V119Q466 99 467 88T473 69T486 59T509 55L533 53V24ZM234 504Q240 520 248 544T264 594T279 639T289 666Q293 668 306 670T336 675T367 677T388 677L393 667L263 490L234 504Z"  />
<glyph unicode="&#xFB;" horiz-adv-x="546" d="M533 24Q492 18 450 9T363 -12L356 -5V59Q341 48 328 38T297 16Q275 2 256 -5T214 -12Q155 -12 120 24T85 133V335Q85 354 84 365T77 383T60 393T28 402V430Q70 432 112 436T198 447Q195 390 195 298V157Q195 129 201 111T218 81T243 65T271 60Q294 60 315 67T356 95V335Q356 355 355 366T346 384T325 394T287 402V430Q331 432 375 435T466 447V119Q466 99 467 88T473 69T486 59T509 55L533 53V24ZM364 487Q337 510 314 533T269 580Q247 557 224 534T174 487L148 507Q178 551 202 591T252 676H285Q311 631 335 591T390 507L364 487Z"  />
<glyph unicode="&#xFC;" horiz-adv-x="546" d="M533 24Q492 18 450 9T363 -12L356 -5V59Q341 48 328 38T297 16Q275 2 256 -5T214 -12Q155 -12 120 24T85 133V335Q85 354 84 365T77 383T60 393T28 402V430Q70 432 112 436T198 447Q195 390 195 298V157Q195 129 201 111T218 81T243 65T271 60Q294 60 315 67T356 95V335Q356 355 355 366T346 384T325 394T287 402V430Q331 432 375 435T466 447V119Q466 99 467 88T473 69T486 59T509 55L533 53V24ZM168 526Q144 526 126 543T108 586Q108 612 126 629T169 646Q195 646 212 629T229 586Q229 561 212 544T168 526ZM360 526Q336 526 319 543T301 586Q301 612 318 629T361 646Q387 646 404 629T421 586Q421 561 404 544T360 526Z"  />
<glyph unicode="&#xFD;" horiz-adv-x="463" d="M481 411Q462 408 450 404T430 392T414 372T396 338Q387 318 376 292T351 232T318 153T277 54Q252 -6 235 -49T206 -123T187 -178T173 -223Q168 -239 159 -244T138 -249Q127 -249 116 -245T95 -232T79 -214T72 -191Q72 -179 78 -171T99 -153Q126 -138 144 -121T178 -75Q188 -58 193 -46T201 -24Q205 -13 204 -2T198 22Q180 72 162 121T128 213T99 290T76 344Q69 362 63 373T48 392T27 404T-4 411V440H228V411Q211 408 201 405T187 396T183 382T188 361L269 129Q278 152 289 182T312 243T333 303T350 355Q359 381 350 392T301 411V440H481V411ZM219 504Q225 520 233 544T249 594T264 639T274 666Q278 668 291 670T321 675T352 677T373 677L378 667L248 490L219 504Z"  />
<glyph unicode="&#xFE;" horiz-adv-x="530" d="M184 394Q209 408 232 420T280 444Q288 448 297 450T319 452Q363 452 396 435T451 391T485 329T497 260Q497 204 477 159T423 79T344 21T250 -12Q226 -11 211 -7T184 3V-119Q184 -146 186 -161T198 -186T224 -198T272 -204V-234H6V-204Q28 -202 41 -199T62 -188T71 -165T74 -123V568Q74 591 73 604T65 626T45 637T8 644V671Q46 675 93 684T184 706V394ZM184 76Q200 61 222 50T267 38Q288 38 309 48T346 80T373 135T384 214Q384 259 373 291T345 343T305 373T259 383Q237 383 220 376T184 359V76Z"  />
<glyph unicode="&#xFF;" horiz-adv-x="463" d="M481 411Q462 408 450 404T430 392T414 372T396 338Q387 318 376 292T351 232T318 153T277 54Q252 -6 235 -49T206 -123T187 -178T173 -223Q168 -239 159 -244T138 -249Q127 -249 116 -245T95 -232T79 -214T72 -191Q72 -179 78 -171T99 -153Q126 -138 144 -121T178 -75Q188 -58 193 -46T201 -24Q205 -13 204 -2T198 22Q180 72 162 121T128 213T99 290T76 344Q69 362 63 373T48 392T27 404T-4 411V440H228V411Q211 408 201 405T187 396T183 382T188 361L269 129Q278 152 289 182T312 243T333 303T350 355Q359 381 350 392T301 411V440H481V411ZM146 526Q122 526 104 543T86 586Q86 612 104 629T147 646Q173 646 190 629T207 586Q207 561 190 544T146 526ZM338 526Q314 526 297 543T279 586Q279 612 296 629T339 646Q365 646 382 629T399 586Q399 561 382 544T338 526Z"  />
<glyph unicode="&#x152;" horiz-adv-x="985" d="M971 166Q968 153 964 131T954 84T944 37T936 0H617Q587 0 564 -1T513 -5Q482 -8 458 -9T412 -11Q317 -11 248 16T133 88T65 193T43 317Q43 393 71 456T151 564T273 635T431 661Q460 661 483 659T532 655Q555 653 577 652T622 650H911Q911 642 912 626T914 590T917 548T921 504L886 500Q871 558 848 584Q836 598 814 603T741 609H683Q658 609 653 604T647 576V358H728Q759 358 778 360T808 370T824 392T835 433H869V235H835Q830 262 824 277T807 299T778 309T728 311H647V141Q647 96 652 77T671 51Q685 43 708 42T764 40Q811 40 838 46T882 73Q911 104 938 172L971 166ZM532 553Q532 576 527 587T508 605Q492 613 472 617T423 621Q367 621 322 601T244 544T195 452T177 329Q177 270 191 216T236 121T313 54T424 29Q444 29 463 31T496 40Q516 49 524 62T532 103V553Z"  />
<glyph unicode="&#x153;" horiz-adv-x="770" d="M741 91Q720 59 696 39T648 8T606 -8T573 -12Q521 -12 480 9T413 68Q379 26 337 7T254 -12Q200 -12 159 7T89 58T46 130T31 211Q31 271 52 316T107 392T181 437T260 452Q312 452 354 429T424 363Q438 381 456 397T495 425T539 444T587 452Q621 452 650 439T702 404T736 354T749 294Q749 277 744 270T724 259Q718 257 693 255T632 251T553 246T468 242Q468 158 509 114T614 69Q670 69 724 114L741 91ZM564 412Q549 412 534 404T506 380T485 339T473 284Q510 285 546 285T618 287Q629 288 634 292T640 310Q640 330 635 348T619 381T595 403T564 412ZM251 415Q233 415 217 405T187 373T166 319T157 243Q157 198 164 159T187 91T223 44T272 27Q288 27 304 35T332 63T353 117T362 205Q363 305 333 360T251 415Z"  />
<glyph unicode="&#x160;" horiz-adv-x="494" d="M398 491Q390 515 380 539T353 582T315 614T261 626Q213 626 186 596T159 524Q159 501 166 483T190 448T229 418T285 387Q321 369 352 350T408 306T446 252T460 183Q460 141 443 105T395 43T321 1T224 -15Q195 -15 170 -11T125 0Q105 6 91 11T68 21Q65 30 61 49T53 91T46 139T39 185L73 195Q80 171 93 142T128 86T177 42T243 24Q294 24 322 54T351 135Q351 183 318 214T228 275Q195 292 164 311T109 354T71 408T57 476Q57 515 72 549T115 609T185 650T277 665Q321 665 356 656T412 640Q415 612 419 579T430 498L398 491ZM400 812Q367 787 333 757T270 695H243Q214 726 180 756T113 812L129 838Q162 824 193 810T257 778Q288 795 319 809T385 838L400 812Z"  />
<glyph unicode="&#x161;" horiz-adv-x="377" d="M303 315Q285 361 260 388T198 416Q175 416 159 399T142 356Q142 330 162 311T220 276Q250 263 274 250T315 220T342 182T352 132Q352 96 337 69T296 24T240 -3T178 -12Q158 -12 140 -9T105 -1T76 10T56 22Q53 28 51 42T46 75T42 114T40 151L68 154Q76 130 88 107T117 66T152 36T195 25Q221 25 238 42T256 85Q256 111 239 130T179 171Q160 180 138 192T96 221T65 261T52 315Q52 343 63 368T96 411T147 441T215 452Q248 452 269 447T308 435Q312 426 315 411T322 379T328 347T332 323L303 315ZM318 663Q287 620 263 580T214 494H181Q156 540 131 580T76 663L102 684Q130 661 152 637T197 590Q219 613 241 637T292 684L318 663Z"  />
<glyph unicode="&#x178;" horiz-adv-x="648" d="M637 617Q612 614 596 610T566 596T542 572T517 535Q502 511 489 489T462 444T433 393T400 331Q389 311 386 299T382 264V133Q382 100 384 81T397 52T426 39T480 32V0H171V32Q203 34 222 38T250 52T263 81T266 133V252Q266 269 263 280T250 309Q227 352 198 404T126 533Q111 558 100 573T78 597T52 610T16 617V650H284V617Q259 614 246 610T229 599T226 583T236 561Q265 506 296 450T358 337Q370 359 385 387T415 444T444 502T467 553Q474 569 476 580T474 598T453 610T409 617V650H637V617ZM438 816Q464 816 481 799T499 755Q499 731 482 714T438 696Q414 696 397 713T379 755Q379 781 396 798T438 816ZM235 816Q261 816 278 799T296 755Q296 731 279 713T235 695Q211 695 194 713T176 755Q176 781 193 798T235 816Z"  />
<glyph unicode="&#x17D;" horiz-adv-x="613" d="M601 179Q598 162 594 138T584 87T573 38T564 0H39L29 16Q129 164 228 312T424 608H281Q242 608 218 606T179 600T157 589T143 573Q133 559 124 538T105 481L73 482Q76 536 79 587T85 675H110Q121 657 132 654T166 650H570L577 635Q479 488 383 344T190 47Q214 44 246 43T328 41Q400 41 444 48T509 76Q526 93 540 118T569 187L601 179ZM467 801Q434 775 400 745T337 683H310Q281 715 247 745T180 801L196 827Q229 813 260 799T324 767Q355 783 386 798T452 827L467 801Z"  />
<glyph unicode="&#x17E;" horiz-adv-x="436" d="M429 134Q416 96 405 61T383 0H37L26 15Q89 113 145 206T261 400H195Q169 400 152 397T121 386T98 364T77 329L61 298L33 310Q43 344 53 386T71 462H93Q98 450 110 445T152 440H391L399 427Q340 328 285 235T171 40H247Q274 40 293 43T329 56T358 81T386 121L402 147L429 134ZM344 663Q313 620 289 580T240 494H207Q182 540 157 580T102 663L128 684Q156 661 178 637T223 590Q245 613 267 637T318 684L344 663Z"  />
<glyph unicode="&#x192;" horiz-adv-x="493" d="M180 414Q191 474 214 516T280 594Q326 632 359 642T410 652Q420 652 432 649T453 639T469 623T475 604Q475 596 471 587T461 569T447 557T433 553Q427 554 418 561T399 577T378 592T356 599Q336 599 325 571Q322 564 319 553T311 520T302 463T290 374H398V331H283L258 166Q248 100 233 56T198 -19T157 -68T113 -103Q87 -122 63 -130T21 -138Q-1 -138 -19 -125T-38 -95Q-38 -86 -33 -76T-21 -58T-7 -45T6 -40Q10 -40 18 -46T35 -60T56 -74T78 -80Q99 -80 108 -53Q113 -35 119 1T135 105L165 331H77V374H172L180 414Z"  />
<glyph unicode="&#x2C6;" horiz-adv-x="400" d="M294 487Q267 510 245 533T199 580Q177 557 155 534T105 487L79 507Q109 551 133 591T183 676H216Q241 631 265 591T321 507L294 487Z"  />
<glyph unicode="&#x2DC;" horiz-adv-x="400" d="M59 533Q76 586 99 609T147 633Q160 633 172 629T208 613Q225 604 237 599T264 593Q279 593 290 606T311 639L338 625Q329 593 319 574T297 543T274 528T254 524Q237 524 221 530T188 547Q171 556 160 560T135 565Q122 565 110 554T86 515L59 533Z"  />
<glyph unicode="&#x2013;" horiz-adv-x="514" d="M50 198V260H464V198H50Z"  />
<glyph unicode="&#x2014;" horiz-adv-x="922" d="M50 198V259H871V198H50Z"  />
<glyph unicode="&#x2018;" horiz-adv-x="235" d="M195 686Q155 667 134 645T112 593Q112 565 131 548T180 525Q184 524 189 517T194 495Q194 475 177 463T142 451H141Q123 451 104 459T70 481T44 517T34 566Q34 597 47 621T81 665T129 696T183 717L195 686Z"  />
<glyph unicode="&#x2019;" horiz-adv-x="235" d="M91 708Q109 708 128 701T163 678T189 642T199 593Q199 562 186 538T152 495T104 463T50 443L38 475Q78 492 99 515T121 567Q121 594 102 611T53 634Q49 635 45 642T40 665Q40 685 56 696T91 708Z"  />
<glyph unicode="&#x201A;" horiz-adv-x="248" d="M97 145Q116 145 136 137T172 113T200 75T211 23Q211 -10 197 -36T161 -81T110 -114T53 -135L41 -102Q83 -82 106 -58T129 -4Q129 25 109 43T57 67Q52 68 47 75T42 99Q42 120 60 132T97 145Z"  />
<glyph unicode="&#x201C;" horiz-adv-x="428" d="M196 686Q156 667 134 645T112 594Q112 567 131 549T180 525Q184 524 189 517T194 495Q194 475 177 463T142 451H141Q123 451 104 459T70 481T44 517T34 566Q34 597 47 621T82 665T130 696T184 717L196 686ZM389 686Q349 667 327 645T305 594Q305 567 324 549T373 525Q377 524 382 517T387 495Q387 475 370 463T335 451H334Q316 451 298 459T263 481T237 517T227 566Q227 597 240 621T275 665T323 696T377 717L389 686Z"  />
<glyph unicode="&#x201D;" horiz-adv-x="429" d="M91 708Q109 708 128 701T163 678T189 642T199 593Q199 562 186 538T151 494T102 462T48 442L37 474Q77 492 99 514T121 566Q121 593 102 611T53 634Q49 635 44 642T39 665Q39 685 56 696T91 708ZM285 708Q303 708 322 701T358 678T384 642T394 593Q394 562 381 538T346 494T297 462T243 442L232 474Q271 492 293 514T315 566Q315 593 296 611T247 634Q243 635 239 642T234 665Q234 685 250 696T285 708Z"  />
<glyph unicode="&#x201E;" horiz-adv-x="456" d="M302 145Q321 145 341 137T378 113T405 75T416 23Q416 -10 403 -36T367 -81T316 -114T259 -135L247 -102Q289 -83 312 -59T335 -4Q335 25 315 43T262 67Q258 68 253 76T248 99Q248 120 265 132T302 145ZM97 145Q116 145 136 137T173 113T200 75T211 23Q211 -10 198 -36T162 -81T111 -114T54 -135L41 -102Q83 -83 106 -59T129 -4Q129 25 109 43T57 67Q52 68 48 76T43 99Q43 120 60 132T97 145Z"  />
<glyph unicode="&#x2020;" horiz-adv-x="500" d="M221 -97Q223 -71 223 -46T223 14Q223 60 220 101T212 175T201 234T188 275Q207 310 216 338T226 401Q182 399 153 389T101 363Q87 368 70 383T43 418Q52 435 69 450T101 471Q123 456 152 446T226 434Q225 459 222 477T214 510T200 539T181 571Q191 591 208 609T246 638Q269 627 285 609T311 571Q300 553 292 539T279 510T270 477T267 434Q311 436 340 446T391 471Q405 466 423 451T450 418Q441 399 423 384T391 363Q370 378 341 388T267 401Q266 367 277 339T307 275Q301 260 294 235T282 176T273 101T269 14Q269 -21 269 -46T271 -97H221Z"  />
<glyph unicode="&#x2021;" horiz-adv-x="491" d="M449 128Q440 110 423 94T392 73Q369 89 340 99T266 111Q267 85 270 67T279 33T293 3T312 -30Q301 -51 284 -69T246 -95Q226 -87 209 -69T180 -30Q191 -12 199 2T212 32T221 66T226 111Q181 109 152 99T100 73Q85 78 69 93T43 128Q52 146 68 161T100 181Q123 166 152 157T226 145Q224 198 214 230T181 281Q204 303 214 334T226 413Q181 412 152 402T100 377Q85 382 69 397T43 430Q52 447 68 462T100 483Q123 468 152 459T226 447Q225 467 222 482T213 511T199 540T180 574Q191 594 208 612T246 638Q266 630 283 612T312 574Q301 555 293 541T280 512T271 482T266 447Q311 449 340 458T391 483Q407 478 424 463T449 430Q441 413 424 398T392 377Q369 392 340 402T266 413Q268 366 278 335T311 281Q289 262 278 231T266 149L268 145Q312 146 340 156T392 181Q406 176 423 161T449 128Z"  />
<glyph unicode="&#x2022;" horiz-adv-x="396" d="M198 358Q225 358 249 348T292 319T320 275T331 221Q331 192 321 167T292 124T250 95T198 84Q171 84 147 94T104 123T76 167T65 221Q65 250 75 275T104 318T146 347T198 358Z"  />
<glyph unicode="&#x2026;" horiz-adv-x="978" d="M162 -12Q133 -12 115 7T96 58Q96 87 114 106T162 126Q192 126 211 107T230 58Q230 26 211 7T162 -12ZM492 -12Q463 -12 444 7T425 58Q425 87 444 106T492 126Q521 126 540 107T560 58Q560 26 541 7T492 -12ZM816 -12Q787 -12 768 7T749 58Q749 87 768 106T816 126Q845 126 864 107T883 58Q883 26 864 7T816 -12Z"  />
<glyph unicode="&#x2030;" horiz-adv-x="1079" d="M184 -36L149 -10L555 651L591 626L184 -36ZM195 635Q234 635 262 619T309 577T336 522T345 463Q345 434 337 404T310 348T264 306T195 289Q155 289 127 305T80 347T53 403T44 462Q44 490 52 521T79 577T126 618T195 635ZM197 601Q177 601 165 586T145 550T136 505T133 464Q133 446 135 422T145 375T165 338T197 322Q216 322 227 337T245 375T254 421T256 463Q256 481 254 505T246 550T228 586T197 601ZM556 334Q595 334 623 318T670 276T696 220T705 161Q705 132 697 102T670 46T624 5T556 -12Q516 -12 487 4T440 46T413 101T404 160Q404 189 412 219T439 275T487 317T556 334ZM890 334Q930 334 958 318T1005 276T1032 220T1041 161Q1041 132 1033 102T1006 46T959 5T890 -12Q851 -12 823 4T776 46T749 101T740 160Q740 189 748 219T775 275T822 317T890 334ZM556 301Q536 301 524 287T505 251T496 205T493 162Q493 144 495 120T505 74T524 37T556 22Q575 22 587 37T605 74T614 120T616 161Q616 179 614 203T606 249T588 286T556 301ZM891 301Q871 301 859 287T841 251T832 205T829 162Q829 143 831 119T840 73T859 37T891 22Q910 22 922 37T941 74T950 120T952 161Q952 179 950 203T942 249T923 286T891 301Z"  />
<glyph unicode="&#x2039;" horiz-adv-x="279" d="M205 34Q164 88 123 136T47 223Q82 261 123 309T205 412L233 395L146 223L233 52L205 34Z"  />
<glyph unicode="&#x203A;" horiz-adv-x="279" d="M75 412Q117 358 157 310T233 223Q197 185 156 137T75 35L46 51L133 223L46 394L75 412Z"  />
<glyph unicode="&#x20AC;" horiz-adv-x="493" d="M471 133Q464 103 452 68T430 11Q423 8 410 4T380 -3T345 -9T310 -12Q251 -12 208 9T136 65T91 147T69 244H24V284H65Q64 296 65 316T67 352H24V391H73Q93 513 161 574T330 636Q371 636 402 629T448 616Q453 582 456 552T463 490L430 483Q416 537 392 567T321 598Q270 598 237 547T192 391H397V352H188Q186 336 186 317T188 284H397V244H191Q200 138 231 83T320 28Q358 28 385 57T440 143L471 133Z"  />
<glyph unicode="&#x2122;" horiz-adv-x="474" d="M176 586Q171 607 165 611Q161 618 141 618H129V524Q129 504 132 500T156 495V477H62V495Q81 496 84 500T88 524V618H77Q58 618 53 610Q46 604 41 586H24Q25 604 26 619T28 643H42Q44 638 47 638Q50 637 56 637H165Q173 637 177 643H191Q192 633 192 618T193 586H176ZM363 477V495Q380 496 383 500T386 521V608H385L326 480H310L260 603H258L255 546Q253 531 253 523T253 508Q254 501 259 499T278 495V477H204V495Q215 495 219 498T226 508Q228 514 229 521T232 549L235 588Q237 608 233 612T210 618V637H286L330 547L375 637H446V618Q431 616 428 612T425 591L426 525Q426 505 429 501T449 495V477H363Z"  />


</font>
</defs>
</svg>
